<svg width="120" height="40" viewBox="0 0 120 40" fill="none" xmlns="http://www.w3.org/2000/svg">
<rect width="119.076" height="40" rx="6.51163" fill="white"/>
<path d="M23.7537 23.5471C26.4319 22.0503 28.4799 20.9098 28.655 20.8207C29.2151 20.5177 29.7927 19.7159 28.655 19.0922C28.2874 18.8961 26.3094 17.7913 23.7537 16.3657L20.2354 19.9653L23.7537 23.5471Z" fill="#FFD400"/>
<path d="M20.2349 19.9653L8.99707 31.4948C9.25964 31.5304 9.55721 31.4591 9.9073 31.2631C10.6425 30.8533 18.4494 26.5052 23.7533 23.5471L20.2349 19.9653Z" fill="#FF3333"/>
<path d="M20.2348 19.9653L23.7532 16.3656C23.7532 16.3656 10.6949 9.11296 9.90722 8.68528C9.60965 8.50708 9.27707 8.45362 8.97949 8.50708L20.2348 19.9653Z" fill="#48FF48"/>
<path d="M20.2352 19.9653L8.97986 8.50708C8.52474 8.614 8.13965 9.02386 8.13965 9.86139C8.13965 11.1979 8.13965 29.0177 8.13965 30.1404C8.13965 30.9066 8.43722 31.4591 8.99736 31.5125L20.2352 19.9653Z" fill="#3BCCFF"/>
<path d="M38.0754 13.8983C37.558 13.8983 37.1166 13.8083 36.751 13.6284C36.3911 13.4484 36.11 13.1898 35.9075 12.8524C35.7107 12.5093 35.6039 12.1016 35.587 11.6293C35.5814 11.3875 35.5785 11.1288 35.5785 10.8532C35.5785 10.5721 35.5814 10.3078 35.587 10.0603C35.6039 9.59358 35.7107 9.19431 35.9075 8.86253C36.11 8.53075 36.3939 8.27488 36.7595 8.09493C37.1306 7.91498 37.5692 7.825 38.0754 7.825C38.4859 7.825 38.8458 7.88124 39.1551 7.99371C39.4643 8.10055 39.7202 8.24114 39.9227 8.41546C40.1307 8.58417 40.2854 8.76693 40.3866 8.96375C40.4934 9.16057 40.5497 9.34333 40.5553 9.51203C40.5609 9.56265 40.5469 9.60482 40.5131 9.63856C40.4794 9.6723 40.4344 9.68917 40.3781 9.68917H39.5093C39.4531 9.68917 39.4109 9.67793 39.3828 9.65543C39.3547 9.63294 39.3294 9.5992 39.3069 9.55421C39.2619 9.43612 39.1916 9.32084 39.096 9.20837C39.0004 9.09028 38.8711 8.99187 38.708 8.91314C38.5449 8.83441 38.334 8.79505 38.0754 8.79505C37.693 8.79505 37.3865 8.89627 37.1559 9.09871C36.931 9.30116 36.8101 9.63575 36.7932 10.1025C36.7763 10.5917 36.7763 11.0866 36.7932 11.5871C36.8101 12.0651 36.9338 12.4081 37.1644 12.6162C37.4005 12.8242 37.7098 12.9283 38.0922 12.9283C38.3453 12.9283 38.5702 12.8833 38.767 12.7933C38.9695 12.7033 39.1269 12.5627 39.2394 12.3716C39.3575 12.1804 39.4165 11.9357 39.4165 11.6377V11.3762H38.3875C38.3312 11.3762 38.2834 11.3565 38.2441 11.3172C38.2047 11.2778 38.185 11.2272 38.185 11.1653V10.7183C38.185 10.6564 38.2047 10.6058 38.2441 10.5664C38.2834 10.5271 38.3312 10.5074 38.3875 10.5074H40.4035C40.4653 10.5074 40.5131 10.5271 40.5469 10.5664C40.5862 10.6058 40.6059 10.6564 40.6059 10.7183V11.604C40.6059 12.0763 40.5019 12.484 40.2938 12.8271C40.0914 13.1701 39.7989 13.4344 39.4165 13.62C39.0398 13.8055 38.5927 13.8983 38.0754 13.8983ZM43.4755 13.8983C42.8513 13.8983 42.3564 13.7184 41.9909 13.3585C41.6254 12.9986 41.4286 12.4868 41.4005 11.8233C41.3948 11.767 41.392 11.6967 41.392 11.6124C41.392 11.5224 41.3948 11.4521 41.4005 11.4015C41.4229 10.9798 41.5185 10.6142 41.6872 10.3049C41.8616 9.99565 42.1006 9.75947 42.4042 9.59639C42.7079 9.42768 43.065 9.34333 43.4755 9.34333C43.931 9.34333 44.3134 9.43893 44.6227 9.63013C44.932 9.8157 45.1653 10.0772 45.3228 10.4146C45.4803 10.7464 45.559 11.1316 45.559 11.5702V11.7474C45.559 11.8036 45.5393 11.8514 45.4999 11.8907C45.4606 11.9301 45.41 11.9498 45.3481 11.9498H42.5476C42.5476 11.9498 42.5476 11.9582 42.5476 11.9751C42.5476 11.992 42.5476 12.006 42.5476 12.0173C42.5533 12.2141 42.5898 12.3969 42.6573 12.5656C42.7304 12.7286 42.8344 12.8608 42.9694 12.962C43.11 13.0632 43.2759 13.1138 43.4671 13.1138C43.6245 13.1138 43.7567 13.0914 43.8635 13.0464C43.9704 12.9958 44.0575 12.9395 44.125 12.8777C44.1925 12.8158 44.2403 12.7652 44.2684 12.7258C44.319 12.6583 44.3584 12.619 44.3865 12.6077C44.4202 12.5909 44.468 12.5824 44.5299 12.5824H45.2553C45.3116 12.5824 45.3565 12.5993 45.3903 12.633C45.4296 12.6668 45.4465 12.709 45.4409 12.7596C45.4353 12.8495 45.3875 12.9592 45.2975 13.0885C45.2131 13.2179 45.0894 13.3444 44.9263 13.4681C44.7633 13.5918 44.558 13.6959 44.3106 13.7802C44.0688 13.859 43.7904 13.8983 43.4755 13.8983ZM42.5476 11.2412H44.4118V11.2159C44.4118 10.9966 44.3752 10.8054 44.3021 10.6423C44.229 10.4793 44.1222 10.3499 43.9816 10.2543C43.841 10.1587 43.6723 10.1109 43.4755 10.1109C43.2787 10.1109 43.11 10.1587 42.9694 10.2543C42.8288 10.3499 42.722 10.4793 42.6489 10.6423C42.5814 10.8054 42.5476 10.9966 42.5476 11.2159V11.2412ZM48.4201 13.814C48.0827 13.814 47.7988 13.7549 47.5682 13.6368C47.3376 13.5187 47.1661 13.3444 47.0537 13.1138C46.9412 12.8777 46.8849 12.5852 46.8849 12.2366V10.3218H46.2186C46.1623 10.3218 46.1145 10.3021 46.0752 10.2628C46.0358 10.2234 46.0161 10.1756 46.0161 10.1194V9.63013C46.0161 9.57389 46.0358 9.52609 46.0752 9.48673C46.1145 9.44737 46.1623 9.42768 46.2186 9.42768H46.8849V8.02745C46.8849 7.97121 46.9018 7.92341 46.9356 7.88405C46.9749 7.84469 47.0255 7.825 47.0874 7.825H47.7706C47.8269 7.825 47.8747 7.84469 47.914 7.88405C47.9534 7.92341 47.9731 7.97121 47.9731 8.02745V9.42768H49.0275C49.0837 9.42768 49.1315 9.44737 49.1709 9.48673C49.2102 9.52609 49.2299 9.57389 49.2299 9.63013V10.1194C49.2299 10.1756 49.2102 10.2234 49.1709 10.2628C49.1315 10.3021 49.0837 10.3218 49.0275 10.3218H47.9731V12.1522C47.9731 12.3828 48.0124 12.5628 48.0912 12.6921C48.1755 12.8214 48.3189 12.8861 48.5214 12.8861H49.1034C49.1596 12.8861 49.2074 12.9058 49.2468 12.9451C49.2862 12.9845 49.3058 13.0323 49.3058 13.0885V13.6115C49.3058 13.6678 49.2862 13.7156 49.2468 13.7549C49.2074 13.7943 49.1596 13.814 49.1034 13.814H48.4201ZM52.1841 13.814C52.1279 13.814 52.0801 13.7943 52.0407 13.7549C52.0014 13.7156 51.9817 13.6678 51.9817 13.6115V9.63013C51.9817 9.57389 52.0014 9.52609 52.0407 9.48673C52.0801 9.44737 52.1279 9.42768 52.1841 9.42768H52.8843C52.9461 9.42768 52.9939 9.44737 53.0277 9.48673C53.067 9.52609 53.0867 9.57389 53.0867 9.63013V13.6115C53.0867 13.6678 53.067 13.7156 53.0277 13.7549C52.9939 13.7943 52.9461 13.814 52.8843 13.814H52.1841ZM52.1504 8.70226C52.0885 8.70226 52.0379 8.68539 51.9986 8.65165C51.9648 8.61229 51.948 8.56167 51.948 8.49982V7.89249C51.948 7.83625 51.9648 7.78845 51.9986 7.74909C52.0379 7.70972 52.0885 7.69004 52.1504 7.69004H52.918C52.9799 7.69004 53.0305 7.70972 53.0698 7.74909C53.1092 7.78845 53.1289 7.83625 53.1289 7.89249V8.49982C53.1289 8.56167 53.1092 8.61229 53.0698 8.65165C53.0305 8.68539 52.9799 8.70226 52.918 8.70226H52.1504ZM56.1881 13.814C55.8507 13.814 55.5667 13.7549 55.3361 13.6368C55.1056 13.5187 54.934 13.3444 54.8216 13.1138C54.7091 12.8777 54.6529 12.5852 54.6529 12.2366V10.3218H53.9865C53.9303 10.3218 53.8825 10.3021 53.8431 10.2628C53.8037 10.2234 53.7841 10.1756 53.7841 10.1194V9.63013C53.7841 9.57389 53.8037 9.52609 53.8431 9.48673C53.8825 9.44737 53.9303 9.42768 53.9865 9.42768H54.6529V8.02745C54.6529 7.97121 54.6697 7.92341 54.7035 7.88405C54.7428 7.84469 54.7935 7.825 54.8553 7.825H55.5386C55.5948 7.825 55.6426 7.84469 55.682 7.88405C55.7213 7.92341 55.741 7.97121 55.741 8.02745V9.42768H56.7954C56.8516 9.42768 56.8994 9.44737 56.9388 9.48673C56.9782 9.52609 56.9978 9.57389 56.9978 9.63013V10.1194C56.9978 10.1756 56.9782 10.2234 56.9388 10.2628C56.8994 10.3021 56.8516 10.3218 56.7954 10.3218H55.741V12.1522C55.741 12.3828 55.7804 12.5628 55.8591 12.6921C55.9435 12.8214 56.0868 12.8861 56.2893 12.8861H56.8713C56.9276 12.8861 56.9754 12.9058 57.0147 12.9451C57.0541 12.9845 57.0738 13.0323 57.0738 13.0885V13.6115C57.0738 13.6678 57.0541 13.7156 57.0147 13.7549C56.9754 13.7943 56.9276 13.814 56.8713 13.814H56.1881ZM61.6897 13.8983C61.2398 13.8983 60.8602 13.8196 60.551 13.6621C60.2473 13.5047 60.0139 13.2825 59.8508 12.9958C59.6934 12.709 59.6034 12.3744 59.5809 11.992C59.5753 11.8907 59.5725 11.767 59.5725 11.6208C59.5725 11.4746 59.5753 11.3509 59.5809 11.2497C59.6034 10.8617 59.6962 10.5271 59.8593 10.2459C60.028 9.9591 60.2642 9.73697 60.5678 9.57952C60.8771 9.42206 61.2511 9.34333 61.6897 9.34333C62.1283 9.34333 62.4995 9.42206 62.8031 9.57952C63.1124 9.73697 63.3486 9.9591 63.5117 10.2459C63.6804 10.5271 63.776 10.8617 63.7985 11.2497C63.8041 11.3509 63.8069 11.4746 63.8069 11.6208C63.8069 11.767 63.8041 11.8907 63.7985 11.992C63.776 12.3744 63.6832 12.709 63.5201 12.9958C63.3627 13.2825 63.1293 13.5047 62.82 13.6621C62.5163 13.8196 62.1396 13.8983 61.6897 13.8983ZM61.6897 13.0632C61.9877 13.0632 62.2183 12.9704 62.3814 12.7849C62.5445 12.5937 62.6344 12.3153 62.6513 11.9498C62.6569 11.8654 62.6597 11.7558 62.6597 11.6208C62.6597 11.4859 62.6569 11.3762 62.6513 11.2919C62.6344 10.932 62.5445 10.6564 62.3814 10.4652C62.2183 10.274 61.9877 10.1784 61.6897 10.1784C61.3917 10.1784 61.1611 10.274 60.998 10.4652C60.8349 10.6564 60.745 10.932 60.7281 11.2919C60.7225 11.3762 60.7197 11.4859 60.7197 11.6208C60.7197 11.7558 60.7225 11.8654 60.7281 11.9498C60.745 12.3153 60.8349 12.5937 60.998 12.7849C61.1611 12.9704 61.3917 13.0632 61.6897 13.0632ZM64.944 13.814C64.8877 13.814 64.8399 13.7943 64.8006 13.7549C64.7612 13.7156 64.7415 13.6678 64.7415 13.6115V9.63013C64.7415 9.57389 64.7612 9.52609 64.8006 9.48673C64.8399 9.44737 64.8877 9.42768 64.944 9.42768H65.6356C65.6919 9.42768 65.7397 9.44737 65.779 9.48673C65.8184 9.52609 65.8381 9.57389 65.8381 9.63013V9.97597C65.9843 9.79602 66.1699 9.647 66.3948 9.52891C66.6254 9.40519 66.9094 9.34333 67.2468 9.34333C67.5898 9.34333 67.8878 9.42206 68.1409 9.57952C68.3939 9.73135 68.5879 9.94785 68.7229 10.229C68.8635 10.5102 68.9338 10.8476 68.9338 11.2412V13.6115C68.9338 13.6678 68.9141 13.7156 68.8747 13.7549C68.8354 13.7943 68.7876 13.814 68.7313 13.814H67.9891C67.9328 13.814 67.885 13.7943 67.8457 13.7549C67.8063 13.7156 67.7866 13.6678 67.7866 13.6115V11.2919C67.7866 10.9657 67.7051 10.7098 67.542 10.5243C67.3845 10.3387 67.154 10.2459 66.8503 10.2459C66.5579 10.2459 66.3245 10.3387 66.1502 10.5243C65.9759 10.7098 65.8887 10.9657 65.8887 11.2919V13.6115C65.8887 13.6678 65.869 13.7156 65.8297 13.7549C65.7903 13.7943 65.7425 13.814 65.6863 13.814H64.944Z" fill="black"/>
<path d="M36.9466 30.0232C36.8274 30.0232 36.7261 29.9815 36.6427 29.898C36.5592 29.8146 36.5175 29.7133 36.5175 29.5941V17.9557C36.5175 17.8246 36.5592 17.7174 36.6427 17.6339C36.7261 17.5505 36.8274 17.5088 36.9466 17.5088H41.7378C42.6674 17.5088 43.4779 17.6578 44.1692 17.9557C44.8604 18.2418 45.3968 18.6828 45.7782 19.2787C46.1596 19.8627 46.3503 20.5957 46.3503 21.4776C46.3503 22.3715 46.1596 23.1105 45.7782 23.6945C45.3968 24.2666 44.8604 24.6956 44.1692 24.9817C43.4779 25.2677 42.6674 25.4107 41.7378 25.4107H39.074V29.5941C39.074 29.7133 39.0323 29.8146 38.9489 29.898C38.8774 29.9815 38.7761 30.0232 38.645 30.0232H36.9466ZM39.0383 23.4263H41.6484C42.3397 23.4263 42.8701 23.2654 43.2395 22.9436C43.609 22.6099 43.7937 22.1212 43.7937 21.4776C43.7937 20.8817 43.6209 20.405 43.2753 20.0474C42.9296 19.678 42.3874 19.4932 41.6484 19.4932H39.0383V23.4263ZM47.2831 30.0232C47.1639 30.0232 47.0626 29.9815 46.9792 29.898C46.8958 29.8146 46.854 29.7133 46.854 29.5941V17.7591C46.854 17.6399 46.8958 17.5386 46.9792 17.4552C47.0626 17.3717 47.1639 17.33 47.2831 17.33H48.767C48.8861 17.33 48.9874 17.3717 49.0709 17.4552C49.1543 17.5386 49.196 17.6399 49.196 17.7591V29.5941C49.196 29.7133 49.1543 29.8146 49.0709 29.898C48.9874 29.9815 48.8861 30.0232 48.767 30.0232H47.2831ZM53.0156 30.202C52.3958 30.202 51.8356 30.0828 51.3351 29.8444C50.8345 29.5941 50.4352 29.2664 50.1373 28.8611C49.8512 28.444 49.7082 27.9792 49.7082 27.4667C49.7082 26.6324 50.0419 25.9709 50.7093 25.4823C51.3887 24.9817 52.2826 24.648 53.391 24.4811L55.8402 24.1235V23.7481C55.8402 23.2475 55.7151 22.8602 55.4648 22.5861C55.2145 22.3119 54.7855 22.1749 54.1776 22.1749C53.7486 22.1749 53.397 22.2643 53.1228 22.443C52.8606 22.6099 52.664 22.8364 52.5329 23.1224C52.4375 23.2773 52.3005 23.3548 52.1217 23.3548H50.7093C50.5782 23.3548 50.4769 23.319 50.4054 23.2475C50.3458 23.176 50.316 23.0807 50.316 22.9615C50.328 22.7708 50.4054 22.5384 50.5484 22.2643C50.6915 21.9901 50.9179 21.7279 51.2278 21.4776C51.5377 21.2154 51.9369 20.9949 52.4256 20.8162C52.9143 20.6374 53.5042 20.548 54.1955 20.548C54.9464 20.548 55.578 20.6434 56.0905 20.834C56.6149 21.0128 57.0321 21.2572 57.342 21.567C57.6519 21.8769 57.8783 22.2404 58.0213 22.6576C58.1643 23.0747 58.2359 23.5157 58.2359 23.9805V29.5941C58.2359 29.7133 58.1941 29.8146 58.1107 29.898C58.0273 29.9815 57.926 30.0232 57.8068 30.0232H56.3587C56.2276 30.0232 56.1203 29.9815 56.0369 29.898C55.9654 29.8146 55.9296 29.7133 55.9296 29.5941V28.8969C55.7747 29.1233 55.5661 29.3379 55.3039 29.5405C55.0417 29.7312 54.7199 29.8921 54.3385 30.0232C53.969 30.1424 53.5281 30.202 53.0156 30.202ZM53.6234 28.5036C54.0406 28.5036 54.416 28.4142 54.7497 28.2354C55.0953 28.0566 55.3635 27.7825 55.5542 27.413C55.7568 27.0317 55.8581 26.5549 55.8581 25.9828V25.6074L54.0704 25.8934C53.3672 26.0007 52.8427 26.1735 52.4971 26.4119C52.1515 26.6503 51.9787 26.9423 51.9787 27.2879C51.9787 27.5501 52.0561 27.7766 52.2111 27.9673C52.3779 28.146 52.5865 28.2831 52.8368 28.3784C53.0871 28.4619 53.3493 28.5036 53.6234 28.5036ZM60.714 33.42C60.6187 33.42 60.5352 33.3842 60.4637 33.3127C60.3922 33.2412 60.3565 33.1578 60.3565 33.0624C60.3565 33.0147 60.3565 32.9671 60.3565 32.9194C60.3684 32.8836 60.3922 32.836 60.428 32.7764L61.8224 29.469L58.3899 21.3704C58.3422 21.2512 58.3184 21.1678 58.3184 21.1201C58.3303 21.0128 58.372 20.9234 58.4435 20.8519C58.5151 20.7685 58.6044 20.7268 58.7117 20.7268H60.1598C60.3028 20.7268 60.4101 20.7625 60.4816 20.834C60.5531 20.9056 60.6068 20.983 60.6425 21.0665L63.0202 26.9125L65.4695 21.0665C65.5052 20.9711 65.5589 20.8936 65.6304 20.834C65.7019 20.7625 65.8092 20.7268 65.9522 20.7268H67.3824C67.4778 20.7268 67.5612 20.7625 67.6327 20.834C67.7161 20.9056 67.7578 20.989 67.7578 21.0843C67.7578 21.1558 67.734 21.2512 67.6863 21.3704L62.6269 33.0803C62.5793 33.1756 62.5197 33.2531 62.4482 33.3127C62.3766 33.3842 62.2694 33.42 62.1264 33.42H60.714ZM74.9691 30.202C73.8607 30.202 72.9311 30.0411 72.1802 29.7193C71.4413 29.3856 70.8751 28.9565 70.4818 28.4321C70.1004 27.8957 69.8978 27.3356 69.874 26.7516C69.874 26.6443 69.9097 26.5549 69.9812 26.4834C70.0528 26.4119 70.1421 26.3761 70.2494 26.3761H71.8405C71.9955 26.3761 72.1087 26.4119 72.1802 26.4834C72.2636 26.543 72.3351 26.6205 72.3947 26.7158C72.4662 26.9423 72.6033 27.1687 72.8059 27.3952C73.0085 27.6097 73.2827 27.7885 73.6283 27.9315C73.9858 28.0745 74.4328 28.146 74.9691 28.146C75.8273 28.146 76.4649 28.003 76.882 27.717C77.3111 27.4309 77.5256 27.0436 77.5256 26.5549C77.5256 26.2093 77.4124 25.9352 77.186 25.7325C76.9595 25.518 76.6079 25.3273 76.1312 25.1605C75.6664 24.9817 75.0466 24.7969 74.2719 24.6062C73.378 24.3917 72.6271 24.1355 72.0193 23.8375C71.4234 23.5276 70.9705 23.1403 70.6606 22.6755C70.3626 22.2106 70.2137 21.6207 70.2137 20.9056C70.2137 20.2143 70.3984 19.6005 70.7679 19.0642C71.1493 18.5278 71.6856 18.1047 72.3769 17.7948C73.08 17.485 73.9143 17.33 74.8797 17.33C75.6544 17.33 76.3397 17.4373 76.9357 17.6518C77.5316 17.8544 78.0262 18.1286 78.4195 18.4742C78.8128 18.8079 79.1108 19.1714 79.3134 19.5647C79.5279 19.9461 79.6412 20.3216 79.6531 20.691C79.6531 20.7864 79.6173 20.8758 79.5458 20.9592C79.4862 21.0307 79.3968 21.0665 79.2777 21.0665H77.615C77.5197 21.0665 77.4243 21.0426 77.329 20.9949C77.2336 20.9473 77.1562 20.8579 77.0966 20.7268C77.0251 20.3573 76.7927 20.0415 76.3993 19.7793C76.006 19.5171 75.4995 19.386 74.8797 19.386C74.2361 19.386 73.7177 19.5051 73.3244 19.7435C72.9311 19.9819 72.7344 20.3513 72.7344 20.8519C72.7344 21.1856 72.8298 21.4657 73.0205 21.6922C73.2231 21.9067 73.5389 22.0974 73.968 22.2643C74.409 22.4311 74.987 22.6099 75.7021 22.8006C76.7152 23.027 77.5435 23.2893 78.1871 23.5872C78.8307 23.8852 79.3015 24.2666 79.5995 24.7314C79.8974 25.1843 80.0464 25.7623 80.0464 26.4655C80.0464 27.2521 79.8319 27.9255 79.4028 28.4857C78.9857 29.034 78.3957 29.4571 77.6329 29.755C76.8701 30.053 75.9822 30.202 74.9691 30.202ZM84.8305 30.0232C84.1154 30.0232 83.5135 29.898 83.0248 29.6478C82.5362 29.3975 82.1727 29.028 81.9343 28.5393C81.6959 28.0388 81.5768 27.419 81.5768 26.6801V22.6218H80.1644C80.0452 22.6218 79.9439 22.5801 79.8605 22.4967C79.7771 22.4132 79.7353 22.3119 79.7353 22.1928V21.1558C79.7353 21.0367 79.7771 20.9354 79.8605 20.8519C79.9439 20.7685 80.0452 20.7268 80.1644 20.7268H81.5768V17.7591C81.5768 17.6399 81.6125 17.5386 81.684 17.4552C81.7675 17.3717 81.8747 17.33 82.0058 17.33H83.4539C83.5731 17.33 83.6744 17.3717 83.7578 17.4552C83.8413 17.5386 83.883 17.6399 83.883 17.7591V20.7268H86.1177C86.2369 20.7268 86.3382 20.7685 86.4216 20.8519C86.505 20.9354 86.5468 21.0367 86.5468 21.1558V22.1928C86.5468 22.3119 86.505 22.4132 86.4216 22.4967C86.3382 22.5801 86.2369 22.6218 86.1177 22.6218H83.883V26.5013C83.883 26.9899 83.9664 27.3713 84.1333 27.6455C84.312 27.9196 84.616 28.0566 85.045 28.0566H86.2786C86.3978 28.0566 86.4991 28.0984 86.5825 28.1818C86.6659 28.2652 86.7077 28.3665 86.7077 28.4857V29.5941C86.7077 29.7133 86.6659 29.8146 86.5825 29.898C86.4991 29.9815 86.3978 30.0232 86.2786 30.0232H84.8305ZM91.154 30.202C90.2006 30.202 89.3961 30.0351 88.7406 29.7014C88.097 29.3677 87.6023 28.8969 87.2567 28.2891C86.923 27.6812 86.7323 26.9721 86.6846 26.1616C86.6727 25.9471 86.6667 25.6849 86.6667 25.375C86.6667 25.0651 86.6727 24.8029 86.6846 24.5884C86.7323 23.766 86.9289 23.0568 87.2746 22.4609C87.6321 21.8531 88.1327 21.3823 88.7763 21.0486C89.4318 20.7149 90.2244 20.548 91.154 20.548C92.0837 20.548 92.8703 20.7149 93.5139 21.0486C94.1694 21.3823 94.67 21.8531 95.0156 22.4609C95.3732 23.0568 95.5758 23.766 95.6235 24.5884C95.6354 24.8029 95.6414 25.0651 95.6414 25.375C95.6414 25.6849 95.6354 25.9471 95.6235 26.1616C95.5758 26.9721 95.3791 27.6812 95.0335 28.2891C94.6998 28.8969 94.2052 29.3677 93.5497 29.7014C92.9061 30.0351 92.1075 30.202 91.154 30.202ZM91.154 28.4321C91.7857 28.4321 92.2744 28.2354 92.62 27.8421C92.9657 27.4369 93.1563 26.8469 93.1921 26.0722C93.204 25.8934 93.21 25.661 93.21 25.375C93.21 25.0889 93.204 24.8565 93.1921 24.6778C93.1563 23.915 92.9657 23.331 92.62 22.9257C92.2744 22.5205 91.7857 22.3179 91.154 22.3179C90.5224 22.3179 90.0337 22.5205 89.6881 22.9257C89.3424 23.331 89.1517 23.915 89.116 24.6778C89.1041 24.8565 89.0981 25.0889 89.0981 25.375C89.0981 25.661 89.1041 25.8934 89.116 26.0722C89.1517 26.8469 89.3424 27.4369 89.6881 27.8421C90.0337 28.2354 90.5224 28.4321 91.154 28.4321ZM96.7998 30.0232C96.6806 30.0232 96.5793 29.9815 96.4958 29.898C96.4124 29.8146 96.3707 29.7133 96.3707 29.5941V21.1737C96.3707 21.0426 96.4124 20.9354 96.4958 20.8519C96.5793 20.7685 96.6806 20.7268 96.7998 20.7268H98.2479C98.367 20.7268 98.4684 20.7685 98.5518 20.8519C98.6471 20.9354 98.6948 21.0426 98.6948 21.1737V21.9067C98.9689 21.5253 99.3205 21.2333 99.7496 21.0307C100.191 20.8281 100.697 20.7268 101.269 20.7268H102.002C102.133 20.7268 102.235 20.7685 102.306 20.8519C102.39 20.9354 102.431 21.0367 102.431 21.1558V22.443C102.431 22.5622 102.39 22.6635 102.306 22.747C102.235 22.8304 102.133 22.8721 102.002 22.8721H100.608C100.036 22.8721 99.5887 23.033 99.2669 23.3548C98.957 23.6766 98.8021 24.1176 98.8021 24.6778V29.5941C98.8021 29.7133 98.7604 29.8146 98.6769 29.898C98.5935 29.9815 98.4862 30.0232 98.3551 30.0232H96.7998ZM106.457 30.202C105.134 30.202 104.085 29.8206 103.31 29.0578C102.535 28.295 102.118 27.2104 102.059 25.8041C102.047 25.6849 102.041 25.5359 102.041 25.3571C102.041 25.1664 102.047 25.0174 102.059 24.9102C102.106 24.0163 102.309 23.2416 102.666 22.5861C103.036 21.9305 103.542 21.43 104.186 21.0843C104.83 20.7268 105.586 20.548 106.457 20.548C107.422 20.548 108.232 20.7506 108.888 21.1558C109.543 21.5492 110.038 22.1034 110.372 22.8185C110.705 23.5217 110.872 24.3381 110.872 25.2677V25.6432C110.872 25.7623 110.831 25.8636 110.747 25.9471C110.664 26.0305 110.556 26.0722 110.425 26.0722H104.49C104.49 26.0722 104.49 26.0901 104.49 26.1259C104.49 26.1616 104.49 26.1914 104.49 26.2152C104.502 26.6324 104.579 27.0197 104.722 27.3773C104.877 27.7229 105.098 28.003 105.384 28.2175C105.682 28.4321 106.033 28.5393 106.439 28.5393C106.772 28.5393 107.052 28.4917 107.279 28.3963C107.505 28.2891 107.69 28.1699 107.833 28.0388C107.976 27.9077 108.077 27.8004 108.137 27.717C108.244 27.5739 108.328 27.4905 108.387 27.4667C108.459 27.4309 108.56 27.413 108.691 27.413H110.229C110.348 27.413 110.443 27.4488 110.515 27.5203C110.598 27.5918 110.634 27.6812 110.622 27.7885C110.61 27.9792 110.509 28.2116 110.318 28.4857C110.139 28.7598 109.877 29.028 109.531 29.2902C109.186 29.5524 108.751 29.7729 108.226 29.9517C107.714 30.1185 107.124 30.202 106.457 30.202ZM104.49 24.5705H108.441V24.5169C108.441 24.052 108.363 23.6468 108.209 23.3012C108.054 22.9555 107.827 22.6814 107.529 22.4788C107.231 22.2762 106.874 22.1749 106.457 22.1749C106.039 22.1749 105.682 22.2762 105.384 22.4788C105.086 22.6814 104.859 22.9555 104.705 23.3012C104.561 23.6468 104.49 24.052 104.49 24.5169V24.5705Z" fill="black"/>
</svg>
