<svg width="236" height="79" viewBox="0 0 236 79" fill="none" xmlns="http://www.w3.org/2000/svg">
<g clip-path="url(#clip0_4519_4778)">
<path d="M216.758 0.219238H19.451C18.7312 0.219238 18.0192 0.219238 17.3033 0.223161C16.7032 0.227083 16.107 0.238851 15.5009 0.248658C14.184 0.263039 12.87 0.37778 11.5705 0.591885C10.2735 0.811956 9.01721 1.22654 7.84401 1.82162C6.67059 2.42247 5.5985 3.20337 4.6667 4.13595C3.73167 5.06428 2.95221 6.13711 2.35826 7.31325C1.76218 8.48777 1.34881 9.74638 1.13244 11.0456C0.914207 12.3434 0.796832 13.6562 0.781373 14.9721C0.76176 15.5742 0.76176 16.1783 0.751953 16.7785V62.1178C0.76176 62.7258 0.763721 63.3142 0.781373 63.9242C0.797472 65.2402 0.915504 66.5529 1.13441 67.8507C1.34938 69.1513 1.76211 70.4113 2.35826 71.587C2.95277 72.7586 3.733 73.8263 4.66867 74.7486C5.59587 75.6843 6.6673 76.465 7.84205 77.0609C9.01593 77.6573 10.2728 78.0738 11.5705 78.2966C12.8701 78.5102 14.1839 78.6262 15.5009 78.6437C16.1089 78.6574 16.7032 78.6653 17.3033 78.6653C18.0212 78.6692 18.7312 78.6692 19.451 78.6692H216.758C217.464 78.6692 218.178 78.6692 218.884 78.6653C219.48 78.6653 220.094 78.6574 220.692 78.6457C222.006 78.6285 223.318 78.5118 224.615 78.2966C225.916 78.0722 227.177 77.6558 228.357 77.0609C229.531 76.4647 230.601 75.684 231.528 74.7486C232.462 73.8215 233.244 72.7533 233.846 71.583C234.439 70.4066 234.848 69.1467 235.06 67.8468C235.279 66.5488 235.4 65.2363 235.423 63.9202C235.431 63.3122 235.431 62.7239 235.431 62.1139C235.447 61.4 235.447 60.692 235.447 59.9682V18.9222C235.447 18.2043 235.447 17.4904 235.431 16.7804C235.431 16.1803 235.431 15.5762 235.423 14.976C235.4 13.6594 235.279 12.3462 235.06 11.0476C234.847 9.749 234.437 8.49049 233.844 7.31522C232.634 4.956 230.715 3.03543 228.357 1.82358C227.177 1.22984 225.916 0.815368 224.615 0.593846C223.318 0.378177 222.006 0.262773 220.692 0.248658C220.094 0.238851 219.48 0.227083 218.884 0.223161C218.178 0.219238 217.462 0.219238 216.758 0.219238V0.219238Z" fill="#A6A6A6"/>
<path d="M17.3138 76.955C16.7156 76.955 16.1331 76.9471 15.5408 76.9354C14.312 76.9189 13.0861 76.8113 11.8732 76.6137C10.7432 76.4188 9.64851 76.0565 8.62529 75.5389C7.61108 75.0258 6.68596 74.353 5.88536 73.5462C5.07351 72.7482 4.39774 71.8226 3.88483 70.8063C3.36521 69.7839 3.00539 68.6879 2.81789 67.5564C2.61645 66.3406 2.50761 65.1113 2.49231 63.879C2.47858 63.4671 2.46289 62.0883 2.46289 62.0883V16.7823C2.46289 16.7823 2.48054 15.4251 2.49231 15.027C2.50693 13.7967 2.61511 12.5693 2.81592 11.3554C3.00345 10.2209 3.36325 9.1216 3.88287 8.09574C4.3942 7.08038 5.06646 6.15445 5.87359 5.35385C6.6796 4.54535 7.60746 3.86832 8.62333 3.34744C9.64446 2.8314 10.7373 2.47174 11.8654 2.28049C13.0821 2.08154 14.312 1.97402 15.5447 1.95884L17.3138 1.9353H218.874L220.665 1.9608C221.886 1.97497 223.104 2.08118 224.309 2.27853C225.449 2.47215 226.554 2.83438 227.587 3.35332C229.622 4.40238 231.278 6.06203 232.323 8.09966C232.834 9.11865 233.188 10.209 233.372 11.3338C233.576 12.5576 233.69 13.7945 233.714 15.0348C233.72 15.5899 233.72 16.1881 233.72 16.7804C233.735 17.5159 233.735 18.216 233.735 18.9221V59.9701C233.735 60.6821 233.735 61.3783 233.72 62.0785C233.72 62.7159 233.72 63.3004 233.712 63.9025C233.689 65.1205 233.578 66.3351 233.378 67.5368C233.195 68.6764 232.838 69.7811 232.319 70.8122C231.802 71.8175 231.13 72.7349 230.327 73.5305C229.525 74.3418 228.598 75.0187 227.581 75.535C226.551 76.0568 225.448 76.4205 224.309 76.6137C223.097 76.8116 221.872 76.9185 220.644 76.9334C220.069 76.9471 219.467 76.955 218.884 76.955L216.758 76.9589L17.3138 76.955Z" fill="black"/>
<path d="M49.3276 40.0334C49.349 38.3969 49.7838 36.7923 50.5917 35.3689C51.3996 33.9455 52.5543 32.7495 53.9484 31.8921C53.0627 30.6269 51.8942 29.5857 50.5358 28.851C49.1774 28.1163 47.6664 27.7084 46.1228 27.6596C42.8279 27.3144 39.6349 29.6307 37.956 29.6307C36.2457 29.6307 33.6607 27.6929 30.8796 27.7518C29.0797 27.8099 27.3256 28.3332 25.7881 29.2709C24.2507 30.2086 22.9823 31.5286 22.1067 33.1022C18.3136 39.6686 21.1437 49.3202 24.7761 54.6294C26.5942 57.2281 28.7183 60.1308 31.4994 60.0289C34.2197 59.9151 35.2357 58.2931 38.5208 58.2931C41.7727 58.2931 42.7259 60.0289 45.5619 59.9641C48.4823 59.9151 50.32 57.3517 52.0734 54.7275C53.3806 52.8758 54.3867 50.8291 55.0546 48.6631C53.3581 47.946 51.9103 46.7451 50.8919 45.2105C49.8734 43.6758 49.3294 41.8753 49.3276 40.0334Z" fill="white"/>
<path d="M43.9712 24.1677C45.563 22.2575 46.3475 19.802 46.1581 17.3228C43.726 17.5781 41.4794 18.7406 39.8663 20.5785C39.0777 21.4757 38.4737 22.5195 38.0887 23.6503C37.7038 24.781 37.5453 25.9765 37.6225 27.1685C38.8388 27.181 40.0421 26.9175 41.1417 26.3977C42.2414 25.8779 43.2089 25.1155 43.9712 24.1677V24.1677Z" fill="white"/>
<path d="M83.7157 53.4491H74.4349L72.2049 60.0312H68.2725L77.0669 35.6758H81.1523L89.9448 60.0312H85.9457L83.7157 53.4491ZM75.3939 50.4091H82.7527L79.1243 39.7278H79.0243L75.3939 50.4091Z" fill="white"/>
<path d="M108.935 51.1561C108.935 56.6732 105.981 60.2173 101.523 60.2173C100.395 60.2761 99.2722 60.0161 98.2844 59.4671C97.2966 58.918 96.4833 58.1021 95.9374 57.1125H95.8531V65.907H92.2051V42.2753H95.7354V45.229H95.8001C96.371 44.2437 97.1983 43.4316 98.194 42.8791C99.1896 42.3265 100.316 42.0541 101.455 42.0909C105.962 42.0909 108.933 45.6527 108.933 51.1561H108.935ZM105.189 51.1561C105.189 47.561 103.33 45.1976 100.495 45.1976C97.7104 45.1976 95.8374 47.61 95.8374 51.1561C95.8374 54.7335 97.7104 57.1302 100.495 57.1302C103.33 57.1302 105.189 54.7825 105.189 51.1561Z" fill="white"/>
<path d="M128.479 51.1561C128.479 56.6732 125.525 60.2173 121.067 60.2173C119.939 60.2761 118.816 60.0161 117.828 59.4671C116.841 58.918 116.027 58.1021 115.481 57.1125H115.397V65.907H111.751V42.2753H115.279V45.229H115.346C115.917 44.2437 116.744 43.4316 117.74 42.8791C118.736 42.3265 119.862 42.0541 121 42.0909C125.508 42.0909 128.479 45.6527 128.479 51.1561ZM124.733 51.1561C124.733 47.561 122.873 45.1976 120.039 45.1976C117.254 45.1976 115.381 47.61 115.381 51.1561C115.381 54.7335 117.254 57.1302 120.039 57.1302C122.873 57.1302 124.731 54.7825 124.731 51.1561H124.733Z" fill="white"/>
<path d="M141.392 53.2465C141.662 55.6629 144.008 57.2476 147.217 57.2476C150.288 57.2476 152.498 55.6629 152.498 53.4839C152.498 51.5932 151.165 50.4635 148.007 49.6868L144.851 48.9258C140.379 47.8471 138.302 45.7544 138.302 42.3594C138.302 38.1583 141.964 35.2712 147.166 35.2712C152.312 35.2712 155.84 38.1583 155.958 42.3594H152.279C152.059 39.9293 150.051 38.4623 147.113 38.4623C144.175 38.4623 142.168 39.947 142.168 42.1064C142.168 43.8284 143.451 44.8424 146.591 45.6171L149.274 46.2761C154.271 47.4587 156.346 49.4652 156.346 53.0288C156.346 57.5849 152.718 60.4386 146.946 60.4386C141.545 60.4386 137.896 57.6536 137.661 53.2465H141.392Z" fill="white"/>
<path d="M164.214 38.074V42.2751H167.592V45.1621H164.214V54.9509C164.214 56.4729 164.891 57.1809 166.376 57.1809C166.776 57.1739 167.176 57.1458 167.574 57.0966V59.966C166.907 60.0907 166.229 60.1472 165.55 60.1347C161.955 60.1347 160.553 58.7833 160.553 55.3393V45.1621H157.972V42.2751H160.553V38.074H164.214Z" fill="white"/>
<path d="M169.547 51.1549C169.547 45.5671 172.838 42.0564 177.969 42.0564C183.117 42.0564 186.392 45.5671 186.392 51.1549C186.392 56.7563 183.135 60.2514 177.969 60.2514C172.805 60.2514 169.547 56.7563 169.547 51.1549ZM182.678 51.1549C182.678 47.3225 180.922 45.0591 177.969 45.0591C175.015 45.0591 173.262 47.3382 173.262 51.1549C173.262 55.0029 175.015 57.2467 177.969 57.2467C180.922 57.2467 182.678 55.0029 182.678 51.1549Z" fill="white"/>
<path d="M189.396 42.275H192.874V45.2974H192.958C193.194 44.3541 193.747 43.5205 194.524 42.9366C195.302 42.3527 196.256 42.054 197.228 42.0907C197.648 42.0889 198.067 42.1343 198.477 42.226V45.6347C197.947 45.4729 197.394 45.3987 196.84 45.4151C196.31 45.3936 195.782 45.4869 195.292 45.6887C194.802 45.8904 194.361 46.1959 194 46.584C193.64 46.9721 193.367 47.4337 193.201 47.9371C193.036 48.4405 192.981 48.9738 193.041 49.5004V60.0326H189.396V42.275Z" fill="white"/>
<path d="M215.284 54.8166C214.793 58.039 211.655 60.2514 207.638 60.2514C202.472 60.2514 199.266 56.7916 199.266 51.2392C199.266 45.6691 202.49 42.0564 207.483 42.0564C212.398 42.0564 215.486 45.4298 215.486 50.8156V52.0649H202.945V52.2846C202.887 52.9381 202.969 53.5964 203.185 54.2158C203.402 54.8352 203.747 55.4016 204.199 55.8772C204.651 56.3528 205.199 56.7268 205.806 56.9745C206.414 57.2221 207.067 57.3376 207.723 57.3133C208.584 57.3939 209.448 57.1944 210.186 56.7445C210.925 56.2947 211.498 55.6186 211.822 54.8166H215.284ZM202.963 49.5172H211.839C211.872 48.9297 211.783 48.3417 211.578 47.7902C211.373 47.2387 211.056 46.7355 210.647 46.3123C210.238 45.8891 209.746 45.5549 209.202 45.3309C208.658 45.1068 208.074 44.9976 207.485 45.0101C206.892 45.0065 206.303 45.1205 205.754 45.3455C205.205 45.5705 204.705 45.9021 204.285 46.3212C203.864 46.7402 203.531 47.2384 203.304 47.7869C203.077 48.3355 202.961 48.9235 202.963 49.5172V49.5172Z" fill="white"/>
<path d="M74.9356 17.3434C75.6998 17.2885 76.4666 17.404 77.1808 17.6814C77.895 17.9588 78.5387 18.3912 79.0656 18.9475C79.5924 19.5038 79.9892 20.1701 80.2274 20.8983C80.4656 21.6265 80.5392 22.3985 80.4429 23.1586C80.4429 26.8968 78.4228 29.0464 74.9356 29.0464H70.709V17.3414L74.9356 17.3434ZM72.5271 27.3911H74.7336C75.2795 27.4234 75.8257 27.3337 76.3326 27.1284C76.8394 26.9231 77.2942 26.6074 77.6637 26.2043C78.0332 25.8011 78.3082 25.3207 78.4687 24.7979C78.6292 24.2751 78.6711 23.7232 78.5914 23.1821C78.6654 22.6432 78.6193 22.0946 78.4564 21.5756C78.2935 21.0565 78.0178 20.58 77.6492 20.18C77.2805 19.78 76.8279 19.4665 76.3238 19.2619C75.8198 19.0574 75.2767 18.9668 74.7336 18.9967H72.5271V27.3911Z" fill="white"/>
<path d="M82.4952 24.6264C82.4418 24.0471 82.5098 23.4631 82.6949 22.9116C82.88 22.36 83.1781 21.8532 83.5701 21.4234C83.9621 20.9936 84.4395 20.6502 84.9717 20.4153C85.5039 20.1804 86.0793 20.0591 86.661 20.0591C87.2427 20.0591 87.8181 20.1804 88.3503 20.4153C88.8825 20.6502 89.3599 20.9936 89.7519 21.4234C90.1439 21.8532 90.442 22.36 90.6271 22.9116C90.8122 23.4631 90.8802 24.0471 90.8268 24.6264C90.8847 25.2082 90.8201 25.7956 90.6372 26.3508C90.4543 26.9061 90.157 27.4168 89.7647 27.8502C89.3723 28.2836 88.8935 28.63 88.3591 28.867C87.8247 29.1041 87.2466 29.2265 86.662 29.2265C86.0774 29.2265 85.4992 29.1041 84.9649 28.867C84.4305 28.63 83.9517 28.2836 83.5593 27.8502C83.1669 27.4168 82.8697 26.9061 82.6868 26.3508C82.5038 25.7956 82.4392 25.2082 82.4972 24.6264H82.4952ZM89.0342 24.6264C89.0342 22.7122 88.1732 21.5923 86.6649 21.5923C85.1488 21.5923 84.2976 22.7122 84.2976 24.6264C84.2976 26.5563 85.1488 27.6664 86.6649 27.6664C88.1751 27.6664 89.0342 26.5485 89.0342 24.6264Z" fill="white"/>
<path d="M101.895 29.0473H100.087L98.2631 22.5417H98.1258L96.3077 29.0473H94.517L92.0811 20.2156H93.8501L95.431 26.9546H95.5624L97.3785 20.2156H99.0496L100.866 26.9546H101.003L102.578 20.2156H104.322L101.895 29.0473Z" fill="white"/>
<path d="M106.369 20.2153H108.046V21.6176H108.175C108.397 21.1137 108.769 20.6913 109.242 20.4094C109.714 20.1274 110.263 19.9999 110.811 20.0446C111.241 20.0124 111.673 20.0772 112.074 20.2343C112.475 20.3914 112.836 20.6368 113.13 20.9523C113.424 21.2678 113.642 21.6453 113.77 22.0568C113.898 22.4684 113.932 22.9034 113.869 23.3298V29.047H112.126V23.7672C112.126 22.3472 111.51 21.6411 110.219 21.6411C109.927 21.6276 109.636 21.6773 109.366 21.7869C109.095 21.8964 108.851 22.0631 108.651 22.2757C108.451 22.4882 108.299 22.7415 108.205 23.0182C108.112 23.295 108.08 23.5886 108.111 23.879V29.047H106.369V20.2153Z" fill="white"/>
<path d="M116.646 16.7678H118.388V29.0455H116.646V16.7678Z" fill="white"/>
<path d="M120.815 24.6269C120.76 24.0469 120.826 23.4618 121.011 22.9091C121.195 22.3563 121.493 21.8482 121.885 21.4173C122.277 20.9863 122.755 20.642 123.288 20.4064C123.821 20.1708 124.397 20.0491 124.979 20.0491C125.562 20.0491 126.138 20.1708 126.671 20.4064C127.204 20.642 127.682 20.9863 128.074 21.4173C128.466 21.8482 128.764 22.3563 128.948 22.9091C129.132 23.4618 129.199 24.0469 129.144 24.6269C129.202 25.2086 129.138 25.7961 128.955 26.3513C128.772 26.9066 128.474 27.4173 128.082 27.8507C127.69 28.2841 127.211 28.6304 126.676 28.8675C126.142 29.1045 125.564 29.227 124.979 29.227C124.395 29.227 123.817 29.1045 123.282 28.8675C122.748 28.6304 122.269 28.2841 121.877 27.8507C121.484 27.4173 121.187 26.9066 121.004 26.3513C120.821 25.7961 120.757 25.2086 120.815 24.6269V24.6269ZM127.352 24.6269C127.352 22.7127 126.491 21.5928 124.982 21.5928C123.466 21.5928 122.615 22.7127 122.615 24.6269C122.615 26.5568 123.466 27.6669 124.982 27.6669C126.492 27.6669 127.352 26.549 127.352 24.6269Z" fill="white"/>
<path d="M130.978 26.5493C130.978 24.9607 132.162 24.0428 134.265 23.9133L136.657 23.7761V23.0131C136.657 22.0815 136.04 21.5539 134.849 21.5539C133.874 21.5539 133.202 21.9109 133.007 22.5345H131.321C131.497 21.0185 132.925 20.0437 134.93 20.0437C137.142 20.0437 138.391 21.1479 138.391 23.0131V29.048H136.714V27.8065H136.577C136.297 28.2519 135.904 28.6149 135.438 28.8585C134.971 29.1021 134.449 29.2176 133.923 29.1932C133.553 29.2318 133.178 29.1923 132.823 29.0772C132.469 28.962 132.142 28.7738 131.865 28.5247C131.587 28.2756 131.365 27.9711 131.213 27.6308C131.06 27.2906 130.981 26.9222 130.979 26.5493H130.978ZM136.655 25.7962V25.0568L134.498 25.1941C133.282 25.2764 132.733 25.6903 132.733 26.4689C132.733 27.2632 133.421 27.7241 134.369 27.7241C134.646 27.7521 134.927 27.7241 135.193 27.6416C135.46 27.5592 135.707 27.4241 135.92 27.2442C136.133 27.0644 136.308 26.8436 136.435 26.5948C136.561 26.3461 136.636 26.0745 136.655 25.7962V25.7962Z" fill="white"/>
<path d="M140.681 24.6267C140.681 21.8358 142.116 20.0687 144.348 20.0687C144.9 20.0436 145.447 20.1759 145.927 20.4503C146.406 20.7246 146.797 21.1297 147.055 21.6181H147.186V16.7678H148.928V29.0455H147.259V27.653H147.122C146.844 28.1385 146.438 28.5385 145.949 28.8099C145.46 29.0813 144.905 29.2137 144.346 29.1926C142.101 29.1926 140.681 27.4255 140.681 24.6267V24.6267ZM142.481 24.6267C142.481 26.4998 143.364 27.6275 144.841 27.6275C146.312 27.6275 147.218 26.4841 147.218 24.6346C147.218 22.7949 146.3 21.6338 144.841 21.6338C143.374 21.6338 142.481 22.7714 142.481 24.6267Z" fill="white"/>
<path d="M156.139 24.6269C156.084 24.0469 156.151 23.4618 156.335 22.9091C156.519 22.3563 156.817 21.8482 157.209 21.4173C157.601 20.9863 158.079 20.642 158.612 20.4064C159.145 20.1708 159.721 20.0491 160.304 20.0491C160.886 20.0491 161.462 20.1708 161.995 20.4064C162.528 20.642 163.006 20.9863 163.398 21.4173C163.79 21.8482 164.088 22.3563 164.272 22.9091C164.456 23.4618 164.523 24.0469 164.468 24.6269C164.526 25.2086 164.462 25.7961 164.279 26.3513C164.096 26.9066 163.799 27.4173 163.406 27.8507C163.014 28.2841 162.535 28.6304 162.001 28.8675C161.466 29.1045 160.888 29.227 160.304 29.227C159.719 29.227 159.141 29.1045 158.606 28.8675C158.072 28.6304 157.593 28.2841 157.201 27.8507C156.809 27.4173 156.511 26.9066 156.328 26.3513C156.145 25.7961 156.081 25.2086 156.139 24.6269ZM162.676 24.6269C162.676 22.7127 161.817 21.5928 160.307 21.5928C158.792 21.5928 157.939 22.7127 157.939 24.6269C157.939 26.5568 158.792 27.6669 160.307 27.6669C161.817 27.6669 162.676 26.549 162.676 24.6269Z" fill="white"/>
<path d="M166.81 20.2153H168.486V21.6176H168.616C168.837 21.1137 169.21 20.6913 169.682 20.4094C170.155 20.1274 170.703 19.9999 171.252 20.0446C171.682 20.0124 172.113 20.0772 172.515 20.2343C172.916 20.3914 173.277 20.6368 173.57 20.9523C173.864 21.2678 174.083 21.6453 174.211 22.0568C174.339 22.4684 174.373 22.9034 174.31 23.3298V29.047H172.566V23.7672C172.566 22.3472 171.95 21.6411 170.66 21.6411C170.368 21.6276 170.077 21.6773 169.806 21.7869C169.535 21.8964 169.292 22.0631 169.091 22.2757C168.891 22.4882 168.739 22.7415 168.646 23.0182C168.553 23.295 168.52 23.5886 168.551 23.879V29.047H166.808L166.81 20.2153Z" fill="white"/>
<path d="M184.159 18.0178V20.2557H186.073V21.7247H184.159V26.2651C184.159 27.1908 184.539 27.5968 185.408 27.5968C185.63 27.5958 185.852 27.582 186.073 27.5556V29.007C185.759 29.0634 185.442 29.0936 185.124 29.0972C183.186 29.0972 182.415 28.4147 182.415 26.7123V21.7247H181.013V20.2557H182.415V18.0178H184.159Z" fill="white"/>
<path d="M188.452 16.7678H190.178V21.6338H190.315C190.547 21.1252 190.931 20.7005 191.413 20.4176C191.895 20.1347 192.453 20.0074 193.01 20.053C193.438 20.0298 193.865 20.1013 194.262 20.2623C194.658 20.4233 195.014 20.6698 195.305 20.9844C195.595 21.2989 195.813 21.6737 195.941 22.0819C196.07 22.4901 196.107 22.9218 196.05 23.346V29.0475H194.307V23.7755C194.307 22.3634 193.65 21.6495 192.418 21.6495C192.118 21.6249 191.817 21.666 191.535 21.7701C191.253 21.8742 190.997 22.0387 190.785 22.252C190.573 22.4654 190.41 22.7225 190.308 23.0053C190.206 23.2881 190.167 23.5898 190.194 23.8893V29.0475H188.452V16.7678Z" fill="white"/>
<path d="M206.214 26.663C205.977 27.4698 205.464 28.1678 204.765 28.6349C204.066 29.1021 203.225 29.3086 202.389 29.2185C201.807 29.2343 201.228 29.1231 200.693 28.8927C200.158 28.6622 199.68 28.3181 199.292 27.8841C198.903 27.4502 198.614 26.9368 198.444 26.3798C198.274 25.8228 198.228 25.2354 198.308 24.6585C198.23 24.0803 198.278 23.4922 198.448 22.934C198.617 22.3759 198.905 21.8607 199.291 21.4233C199.677 20.9859 200.153 20.6366 200.685 20.3989C201.218 20.1612 201.796 20.0407 202.379 20.0456C204.837 20.0456 206.319 21.7244 206.319 24.4977V25.1057H200.082V25.2038C200.055 25.528 200.096 25.8544 200.202 26.162C200.308 26.4695 200.478 26.7515 200.699 26.9897C200.921 27.228 201.19 27.4172 201.489 27.5454C201.788 27.6735 202.111 27.7377 202.436 27.7338C202.853 27.7832 203.274 27.7077 203.648 27.5171C204.022 27.3265 204.33 27.0292 204.535 26.663H206.214ZM200.082 23.8171H204.544C204.567 23.5205 204.527 23.2225 204.427 22.9423C204.327 22.6622 204.169 22.406 203.964 22.1904C203.76 21.9748 203.512 21.8045 203.237 21.6904C202.962 21.5764 202.667 21.5212 202.369 21.5283C202.068 21.5246 201.769 21.5813 201.489 21.695C201.21 21.8088 200.956 21.9773 200.743 22.1906C200.53 22.4039 200.362 22.6577 200.248 22.937C200.135 23.2164 200.079 23.5156 200.082 23.8171V23.8171Z" fill="white"/>
</g>
<defs>
<clipPath id="clip0_4519_4778">
<rect width="234.697" height="78.8897" fill="white" transform="translate(0.74707)"/>
</clipPath>
</defs>
</svg>
