<svg width="152" height="24" viewBox="0 0 152 24" fill="none" xmlns="http://www.w3.org/2000/svg">
<path d="M13.7299 3.50989L15.4899 7.02989C15.7299 7.51989 16.3699 7.98989 16.9099 8.07989L20.0999 8.60989C22.1399 8.94989 22.6199 10.4299 21.1499 11.8899L18.6699 14.3699C18.2499 14.7899 18.0199 15.5999 18.1499 16.1799L18.8599 19.2499C19.4199 21.6799 18.1299 22.6199 15.9799 21.3499L12.9899 19.5799C12.4499 19.2599 11.5599 19.2599 11.0099 19.5799L8.01991 21.3499C5.87991 22.6199 4.57991 21.6699 5.13991 19.2499L5.84991 16.1799C5.97991 15.5999 5.74991 14.7899 5.32991 14.3699L2.84991 11.8899C1.38991 10.4299 1.85991 8.94989 3.89991 8.60989L7.08991 8.07989C7.61991 7.98989 8.25991 7.51989 8.49991 7.02989L10.2599 3.50989C11.2199 1.59989 12.7799 1.59989 13.7299 3.50989Z" fill="#FCB415"/>
<path d="M45.7299 3.50989L47.4899 7.02989C47.7299 7.51989 48.3699 7.98989 48.9099 8.07989L52.0999 8.60989C54.1399 8.94989 54.6199 10.4299 53.1499 11.8899L50.6699 14.3699C50.2499 14.7899 50.0199 15.5999 50.1499 16.1799L50.8599 19.2499C51.4199 21.6799 50.1299 22.6199 47.9799 21.3499L44.9899 19.5799C44.4499 19.2599 43.5599 19.2599 43.0099 19.5799L40.0199 21.3499C37.8799 22.6199 36.5799 21.6699 37.1399 19.2499L37.8499 16.1799C37.9799 15.5999 37.7499 14.7899 37.3299 14.3699L34.8499 11.8899C33.3899 10.4299 33.8599 8.94989 35.8999 8.60989L39.0899 8.07989C39.6199 7.98989 40.2599 7.51989 40.4999 7.02989L42.2599 3.50989C43.2199 1.59989 44.7799 1.59989 45.7299 3.50989Z" fill="#FCB415"/>
<path d="M77.7299 3.50989L79.4899 7.02989C79.7299 7.51989 80.3699 7.98989 80.9099 8.07989L84.0999 8.60989C86.1399 8.94989 86.6199 10.4299 85.1499 11.8899L82.6699 14.3699C82.2499 14.7899 82.0199 15.5999 82.1499 16.1799L82.8599 19.2499C83.4199 21.6799 82.1299 22.6199 79.9799 21.3499L76.9899 19.5799C76.4499 19.2599 75.5599 19.2599 75.0099 19.5799L72.0199 21.3499C69.8799 22.6199 68.5799 21.6699 69.1399 19.2499L69.8499 16.1799C69.9799 15.5999 69.7499 14.7899 69.3299 14.3699L66.8499 11.8899C65.3899 10.4299 65.8599 8.94989 67.8999 8.60989L71.0899 8.07989C71.6199 7.98989 72.2599 7.51989 72.4999 7.02989L74.2599 3.50989C75.2199 1.59989 76.7799 1.59989 77.7299 3.50989Z" fill="#FCB415"/>
<path d="M109.73 3.50989L111.49 7.02989C111.73 7.51989 112.37 7.98989 112.91 8.07989L116.1 8.60989C118.14 8.94989 118.62 10.4299 117.15 11.8899L114.67 14.3699C114.25 14.7899 114.02 15.5999 114.15 16.1799L114.86 19.2499C115.42 21.6799 114.13 22.6199 111.98 21.3499L108.99 19.5799C108.45 19.2599 107.56 19.2599 107.01 19.5799L104.02 21.3499C101.88 22.6199 100.58 21.6699 101.14 19.2499L101.85 16.1799C101.98 15.5999 101.75 14.7899 101.33 14.3699L98.8499 11.8899C97.3899 10.4299 97.8599 8.94989 99.8999 8.60989L103.09 8.07989C103.62 7.98989 104.26 7.51989 104.5 7.02989L106.26 3.50989C107.22 1.59989 108.78 1.59989 109.73 3.50989Z" fill="#FCB415"/>
<path d="M141.73 3.50989L143.49 7.02989C143.73 7.51989 144.37 7.98989 144.91 8.07989L148.1 8.60989C150.14 8.94989 150.62 10.4299 149.15 11.8899L146.67 14.3699C146.25 14.7899 146.02 15.5999 146.15 16.1799L146.86 19.2499C147.42 21.6799 146.13 22.6199 143.98 21.3499L140.99 19.5799C140.45 19.2599 139.56 19.2599 139.01 19.5799L136.02 21.3499C133.88 22.6199 132.58 21.6699 133.14 19.2499L133.85 16.1799C133.98 15.5999 133.75 14.7899 133.33 14.3699L130.85 11.8899C129.39 10.4299 129.86 8.94989 131.9 8.60989L135.09 8.07989C135.62 7.98989 136.26 7.51989 136.5 7.02989L138.26 3.50989C139.22 1.59989 140.78 1.59989 141.73 3.50989Z" fill="#FCB415"/>
</svg>
