<svg width="234" height="79" viewBox="0 0 234 79" fill="none" xmlns="http://www.w3.org/2000/svg">
<g clip-path="url(#clip0_4519_4764)">
<path fill-rule="evenodd" clip-rule="evenodd" d="M225.087 78.8897H8.66049C3.88733 78.8897 0 74.4435 0 69.0285V9.86121C0 4.42648 3.88733 0 8.66049 0H225.087C229.856 0 233.747 4.42648 233.747 9.86121V69.0285C233.747 74.4435 229.856 78.8897 225.087 78.8897Z" fill="black"/>
<path fill-rule="evenodd" clip-rule="evenodd" d="M225.087 1.57878C229.09 1.57878 232.367 5.30194 232.367 9.86121V69.0285C232.367 73.5877 229.112 77.3109 225.087 77.3109H8.66049C4.65706 77.3109 1.38035 73.5877 1.38035 69.0285V9.86121C1.38035 5.30194 4.63555 1.57878 8.66049 1.57878H225.087V1.57878ZM225.087 0H8.66049C3.88733 0 0 4.44615 0 9.86121V69.0285C0 74.4632 3.88733 78.8897 8.66049 78.8897H225.087C229.856 78.8897 233.747 74.4632 233.747 69.0285V9.86121C233.747 4.44615 229.856 0 225.087 0Z" fill="#A6A6A6"/>
<path d="M123.136 27.2199C121.576 27.2199 120.26 26.6738 119.219 25.5988C118.187 24.5539 117.611 23.1134 117.637 21.6428C117.637 20.0734 118.17 18.7447 119.219 17.6912C120.255 16.6162 121.571 16.0701 123.132 16.0701C124.676 16.0701 125.992 16.6162 127.049 17.6912C128.099 18.7791 128.632 20.1078 128.632 21.6428C128.615 23.2166 128.081 24.5453 127.049 25.5945C126.013 26.6781 124.697 27.2199 123.136 27.2199V27.2199ZM76.6923 27.2199C75.1658 27.2199 73.8414 26.6824 72.7578 25.6203C71.6828 24.5625 71.1367 23.2252 71.1367 21.6472C71.1367 20.0691 71.6828 18.7318 72.7578 17.674C73.8199 16.6119 75.1443 16.0744 76.6923 16.0744C77.4491 16.0744 78.1844 16.2249 78.8896 16.5302C79.5819 16.8269 80.1452 17.2311 80.5623 17.7256L80.6655 17.8503L79.5002 18.9941L79.3798 18.8522C78.7219 18.0696 77.8404 17.6869 76.6751 17.6869C75.6345 17.6869 74.7272 18.0567 73.979 18.7877C73.2265 19.523 72.8438 20.4862 72.8438 21.6515C72.8438 22.8167 73.2265 23.7799 73.979 24.5152C74.7272 25.2462 75.6345 25.616 76.6751 25.616C77.7845 25.616 78.7176 25.2462 79.4443 24.5152C79.8743 24.0852 80.1409 23.4832 80.2355 22.7221H76.4988V21.114H81.8394L81.8609 21.2602C81.8996 21.5311 81.9383 21.8105 81.9383 22.0685C81.9383 23.552 81.4911 24.7517 80.6053 25.6375C79.5991 26.6867 78.2833 27.2199 76.6923 27.2199ZM138.444 26.992H136.797L131.754 18.921L131.797 20.3744V26.9877H130.15V16.3023H132.029L132.08 16.384L136.823 23.9863L136.78 22.5372V16.3023H138.444V26.992V26.992ZM110.761 26.992H109.093V17.9105H106.199V16.3023H113.651V17.9105H110.757V26.992H110.761ZM104.84 26.992H103.176V16.3023H104.84V26.992V26.992ZM95.4875 26.992H93.8234V17.9105H90.9296V16.3023H98.3814V17.9105H95.4875V26.992V26.992ZM89.8761 26.9748H83.4949V16.3023H89.8761V17.9105H85.1633V20.8431H89.416V22.434H85.1633V25.3666H89.8761V26.9748V26.9748ZM120.44 24.4937C121.184 25.2376 122.087 25.6117 123.136 25.6117C124.216 25.6117 125.097 25.2462 125.833 24.4937C126.564 23.7627 126.933 22.8038 126.933 21.6472C126.933 20.4905 126.564 19.5273 125.837 18.8006C125.093 18.0567 124.186 17.6826 123.141 17.6826C122.061 17.6826 121.18 18.0481 120.449 18.8006C119.718 19.5316 119.348 20.4905 119.348 21.6472C119.348 22.8038 119.714 23.767 120.44 24.4937Z" fill="white"/>
<path fill-rule="evenodd" clip-rule="evenodd" d="M117.482 41.9171C113.418 41.9171 110.124 45.0002 110.124 49.2529C110.124 53.4669 113.44 56.5887 117.482 56.5887C121.545 56.5887 124.839 53.4841 124.839 49.2529C124.839 45.0002 121.545 41.9171 117.482 41.9171ZM117.482 53.6819C115.259 53.6819 113.345 51.8415 113.345 49.2357C113.345 46.5912 115.263 44.7895 117.482 44.7895C119.705 44.7895 121.618 46.5912 121.618 49.2357C121.623 51.8587 119.705 53.6819 117.482 53.6819ZM101.43 41.9171C97.3663 41.9171 94.0725 45.0002 94.0725 49.2529C94.0725 53.4669 97.3878 56.5887 101.43 56.5887C105.493 56.5887 108.787 53.4841 108.787 49.2529C108.787 45.0002 105.489 41.9171 101.43 41.9171ZM101.43 53.6819C99.2067 53.6819 97.2932 51.8415 97.2932 49.2357C97.2932 46.5912 99.211 44.7895 101.43 44.7895C103.653 44.7895 105.566 46.5912 105.566 49.2357C105.566 51.8587 103.653 53.6819 101.43 53.6819ZM82.3292 44.1574V47.262H89.7811C89.5532 49.0035 88.977 50.2892 88.0955 51.1707C87.0033 52.2629 85.3177 53.4497 82.3464 53.4497C77.7669 53.4497 74.1851 49.7517 74.1851 45.1722C74.1851 40.5927 77.7669 36.8947 82.3464 36.8947C84.8189 36.8947 86.6206 37.8708 87.9579 39.1178L90.1595 36.9162C88.3019 35.136 85.8294 33.7729 82.3636 33.7729C76.0814 33.7729 70.8096 38.8899 70.8096 45.155C70.8096 51.4373 76.0771 56.5371 82.3636 56.5371C85.7563 56.5371 88.3019 55.4277 90.3143 53.3379C92.3654 51.2868 93.0147 48.3929 93.0147 46.058C93.0147 45.3313 92.9588 44.6777 92.8427 44.123H82.3249C82.3292 44.1187 82.3292 44.1574 82.3292 44.1574V44.1574ZM160.456 46.574C159.841 44.9271 157.983 41.8999 154.173 41.8999C150.398 41.8999 147.259 44.8712 147.259 49.2357C147.259 53.3551 150.364 56.5715 154.539 56.5715C157.893 56.5715 159.845 54.5204 160.649 53.3164L158.159 51.648C157.334 52.8735 156.186 53.6776 154.556 53.6776C152.909 53.6776 151.757 52.9294 150.991 51.4545L160.8 47.391C160.8 47.3953 160.456 46.574 160.456 46.574V46.574ZM150.454 49.025C150.377 46.1913 152.655 44.7508 154.285 44.7508C155.571 44.7508 156.642 45.3829 157.007 46.3031L150.454 49.025ZM142.486 56.1329H145.707V34.5813H142.486V56.1329ZM137.197 43.5468H137.081C136.354 42.6825 134.974 41.8999 133.211 41.8999C129.552 41.8999 126.18 45.1206 126.18 49.2572C126.18 53.3766 129.534 56.5586 133.211 56.5586C134.952 56.5586 136.354 55.7717 137.081 54.8902H137.197V55.9437C137.197 58.743 135.701 60.2523 133.288 60.2523C131.315 60.2523 130.089 58.8333 129.59 57.6465L126.791 58.8161C127.595 60.7511 129.741 63.1461 133.284 63.1461C137.059 63.1461 140.259 60.9231 140.259 55.5008V42.3385H137.214V43.5468H137.197V43.5468ZM133.499 53.6819C131.276 53.6819 129.418 51.8243 129.418 49.2572C129.418 46.6686 131.276 44.7938 133.499 44.7938C135.701 44.7938 137.408 46.6901 137.408 49.2572C137.429 51.8243 135.705 53.6819 133.499 53.6819ZM175.536 34.5813H167.834V56.1329H171.055V47.9715H175.54C179.105 47.9715 182.609 45.3872 182.609 41.285C182.609 37.1828 179.118 34.5813 175.536 34.5813V34.5813ZM175.63 44.9615H171.051V37.5655H175.63C178.043 37.5655 179.406 39.5564 179.406 41.2635C179.406 42.9534 178.025 44.9615 175.63 44.9615ZM195.518 41.8784C193.179 41.8784 190.766 42.9147 189.769 45.1722L192.624 46.359C193.239 45.1722 194.365 44.768 195.556 44.768C197.225 44.768 198.91 45.7656 198.949 47.5458V47.7737C198.373 47.4469 197.109 46.9481 195.595 46.9481C192.512 46.9481 189.386 48.6337 189.386 51.7942C189.386 54.6881 191.914 56.5457 194.731 56.5457C196.894 56.5457 198.085 55.5696 198.829 54.4387H198.945V56.1071H202.049V47.8511C202.049 44.0069 199.194 41.8784 195.518 41.8784ZM195.114 53.6819C194.06 53.6819 192.585 53.1659 192.585 51.8415C192.585 50.1731 194.426 49.541 195.995 49.541C197.414 49.541 198.085 49.8463 198.928 50.2677C198.695 52.2027 197.061 53.6647 195.114 53.6819V53.6819ZM213.376 42.3385L209.678 51.6867H209.562L205.73 42.3385H202.264L208.014 55.4062L204.737 62.6689H208.091L216.936 42.3385H213.376ZM184.385 56.1329H187.606V34.5813H184.385V56.1329Z" fill="white"/>
<path fill-rule="evenodd" clip-rule="evenodd" d="M17.993 17.3947C17.4942 17.9322 17.2061 18.7535 17.2061 19.8285V57.9564C17.2061 59.0314 17.4942 59.8527 18.0102 60.3687L18.1435 60.4848L39.5058 39.1225V38.6452L18.1263 17.2786L17.993 17.3947V17.3947Z" fill="url(#paint0_linear_4519_4764)"/>
<path fill-rule="evenodd" clip-rule="evenodd" d="M46.6153 46.2643L39.4902 39.1393V38.6405L46.6153 31.5154L46.7701 31.61L55.1981 36.4002C57.6104 37.759 57.6104 40.0036 55.1981 41.3795L46.7701 46.1697L46.6153 46.2643Z" fill="url(#paint1_linear_4519_4764)"/>
<path fill-rule="evenodd" clip-rule="evenodd" d="M46.7667 46.1698L39.4868 38.8899L17.9912 60.3855C18.7781 61.2283 20.0982 61.3229 21.5731 60.5016L46.7667 46.1698" fill="url(#paint2_linear_4519_4764)"/>
<path fill-rule="evenodd" clip-rule="evenodd" d="M46.7667 31.6103L21.5731 17.2999C20.0982 16.4571 18.7738 16.5732 17.9912 17.416L39.4868 38.8902L46.7667 31.6103Z" fill="url(#paint3_linear_4519_4764)"/>
<path opacity="0.2" fill-rule="evenodd" clip-rule="evenodd" d="M46.6133 46.0151L21.5917 60.2309C20.1942 61.035 18.9472 60.9791 18.1431 60.2481L18.0098 60.3814L18.1431 60.4975C18.9472 61.2242 20.1942 61.2844 21.5917 60.4803L46.7853 46.1699L46.6133 46.0151V46.0151Z" fill="black"/>
<path opacity="0.12" fill-rule="evenodd" clip-rule="evenodd" d="M55.1961 41.1302L46.5918 46.015L46.7466 46.1698L55.1746 41.3796C56.3829 40.6916 56.9763 39.7886 56.9763 38.8899C56.9032 39.7155 56.2883 40.4981 55.1961 41.1302V41.1302Z" fill="black"/>
<path opacity="0.25" fill-rule="evenodd" clip-rule="evenodd" d="M21.5748 17.5488L55.1964 36.6493C56.2886 37.2642 56.9035 38.0683 56.9981 38.8896C56.9981 37.9909 56.4047 37.0879 55.1964 36.3999L21.5748 17.2994C19.1625 15.9191 17.2061 17.0715 17.2061 19.8278V20.0772C17.2061 17.3166 19.1625 16.1857 21.5748 17.5488V17.5488Z" fill="white"/>
</g>
<defs>
<linearGradient id="paint0_linear_4519_4764" x1="37.5898" y1="19.4174" x2="3.37063" y2="28.5351" gradientUnits="userSpaceOnUse">
<stop stop-color="#00A0FF"/>
<stop offset="0.007" stop-color="#00A1FF"/>
<stop offset="0.26" stop-color="#00BEFF"/>
<stop offset="0.512" stop-color="#00D2FF"/>
<stop offset="0.76" stop-color="#00DFFF"/>
<stop offset="1" stop-color="#00E3FF"/>
</linearGradient>
<linearGradient id="paint1_linear_4519_4764" x1="58.3438" y1="38.8898" x2="16.6213" y2="38.8898" gradientUnits="userSpaceOnUse">
<stop stop-color="#FFE000"/>
<stop offset="0.409" stop-color="#FFBD00"/>
<stop offset="0.775" stop-color="#FFA500"/>
<stop offset="1" stop-color="#FF9C00"/>
</linearGradient>
<linearGradient id="paint2_linear_4519_4764" x1="42.8079" y1="42.8514" x2="15.3374" y2="89.0863" gradientUnits="userSpaceOnUse">
<stop stop-color="#FF3A44"/>
<stop offset="1" stop-color="#C31162"/>
</linearGradient>
<linearGradient id="paint3_linear_4519_4764" x1="12.5785" y1="4.71236" x2="24.8341" y2="25.362" gradientUnits="userSpaceOnUse">
<stop stop-color="#32A071"/>
<stop offset="0.069" stop-color="#2DA771"/>
<stop offset="0.476" stop-color="#15CF74"/>
<stop offset="0.801" stop-color="#06E775"/>
<stop offset="1" stop-color="#00F076"/>
</linearGradient>
<clipPath id="clip0_4519_4764">
<rect width="233.747" height="78.8897" fill="white"/>
</clipPath>
</defs>
</svg>
