<svg width="116" height="40" viewBox="0 0 116 40" fill="none" xmlns="http://www.w3.org/2000/svg">
<rect width="115.351" height="40" rx="6.51163" fill="white"/>
<path d="M25.0265 16.6341C24.9023 16.7293 22.7081 17.9504 22.7081 20.6656C22.7081 23.8061 25.5001 24.9172 25.5837 24.9447C25.5708 25.0124 25.1401 26.4663 24.1116 27.9477C23.1945 29.2513 22.2367 30.5528 20.7796 30.5528C19.3226 30.5528 18.9476 29.7169 17.2656 29.7169C15.6264 29.7169 15.0435 30.5804 13.7108 30.5804C12.378 30.5804 11.448 29.3741 10.3788 27.8927C9.14031 26.1531 8.13965 23.4506 8.13965 20.8857C8.13965 16.7716 10.8481 14.5897 13.5136 14.5897C14.93 14.5897 16.1106 15.5082 16.9999 15.5082C17.8462 15.5082 19.1662 14.5347 20.7775 14.5347C21.3882 14.5347 23.5823 14.5897 25.0265 16.6341ZM20.0125 12.793C20.6789 12.0121 21.1503 10.9286 21.1503 9.84505C21.1503 9.69479 21.1375 9.54242 21.1096 9.41968C20.0254 9.45989 18.7355 10.1329 17.9577 11.0238C17.347 11.7095 16.777 12.793 16.777 13.8914C16.777 14.0564 16.8049 14.2215 16.8177 14.2744C16.8863 14.2871 16.9977 14.3019 17.1091 14.3019C18.0819 14.3019 19.3054 13.6586 20.0125 12.793Z" fill="black"/>
<path d="M32.2578 13.814C32.2016 13.814 32.1538 13.7943 32.1144 13.7549C32.0751 13.7156 32.0554 13.6678 32.0554 13.6115V8.12023C32.0554 8.05838 32.0751 8.00777 32.1144 7.9684C32.1538 7.92904 32.2016 7.90936 32.2578 7.90936H34.316C34.884 7.90936 35.3507 7.99652 35.7163 8.17085C36.0874 8.34517 36.3658 8.60385 36.5513 8.94688C36.7425 9.28991 36.8409 9.70886 36.8466 10.2037C36.8578 10.4511 36.8634 10.6705 36.8634 10.8617C36.8634 11.0529 36.8578 11.2694 36.8466 11.5112C36.8353 12.0341 36.7397 12.4672 36.5598 12.8102C36.3798 13.1476 36.1071 13.4006 35.7416 13.5693C35.3817 13.7324 34.9205 13.814 34.3582 13.814H32.2578ZM33.2279 12.8439H34.316C34.6309 12.8439 34.8868 12.7989 35.0836 12.709C35.2804 12.619 35.4238 12.4756 35.5138 12.2788C35.6094 12.0763 35.66 11.812 35.6657 11.4859C35.6713 11.3172 35.6741 11.1709 35.6741 11.0472C35.6797 10.9179 35.6797 10.7914 35.6741 10.6677C35.6741 10.5383 35.6713 10.3921 35.6657 10.229C35.6544 9.7679 35.5391 9.42768 35.3198 9.20837C35.1005 8.98906 34.7518 8.8794 34.2738 8.8794H33.2279V12.8439ZM39.8252 13.8983C39.3754 13.8983 38.9958 13.8196 38.6865 13.6621C38.3828 13.5047 38.1495 13.2825 37.9864 12.9958C37.8289 12.709 37.7389 12.3744 37.7164 11.992C37.7108 11.8907 37.708 11.767 37.708 11.6208C37.708 11.4746 37.7108 11.3509 37.7164 11.2497C37.7389 10.8617 37.8317 10.5271 37.9948 10.2459C38.1635 9.9591 38.3997 9.73697 38.7034 9.57952C39.0126 9.42206 39.3866 9.34333 39.8252 9.34333C40.2639 9.34333 40.635 9.42206 40.9387 9.57952C41.248 9.73697 41.4841 9.9591 41.6472 10.2459C41.8159 10.5271 41.9115 10.8617 41.934 11.2497C41.9396 11.3509 41.9425 11.4746 41.9425 11.6208C41.9425 11.767 41.9396 11.8907 41.934 11.992C41.9115 12.3744 41.8187 12.709 41.6557 12.9958C41.4982 13.2825 41.2648 13.5047 40.9555 13.6621C40.6519 13.8196 40.2751 13.8983 39.8252 13.8983ZM39.8252 13.0632C40.1233 13.0632 40.3538 12.9704 40.5169 12.7849C40.68 12.5937 40.77 12.3153 40.7868 11.9498C40.7925 11.8654 40.7953 11.7558 40.7953 11.6208C40.7953 11.4859 40.7925 11.3762 40.7868 11.2919C40.77 10.932 40.68 10.6564 40.5169 10.4652C40.3538 10.274 40.1233 10.1784 39.8252 10.1784C39.5272 10.1784 39.2966 10.274 39.1336 10.4652C38.9705 10.6564 38.8805 10.932 38.8636 11.2919C38.858 11.3762 38.8552 11.4859 38.8552 11.6208C38.8552 11.7558 38.858 11.8654 38.8636 11.9498C38.8805 12.3153 38.9705 12.5937 39.1336 12.7849C39.2966 12.9704 39.5272 13.0632 39.8252 13.0632ZM43.9513 13.814C43.8726 13.814 43.8135 13.7943 43.7741 13.7549C43.7348 13.7156 43.701 13.6649 43.6729 13.6031L42.4667 9.68917C42.4611 9.66106 42.4583 9.63575 42.4583 9.61326C42.4583 9.56265 42.4751 9.52047 42.5089 9.48673C42.5482 9.44737 42.5904 9.42768 42.6354 9.42768H43.2596C43.3271 9.42768 43.3805 9.44737 43.4199 9.48673C43.4592 9.52047 43.4817 9.55421 43.4873 9.58795L44.314 12.38L45.1912 9.61326C45.2025 9.57389 45.2278 9.53453 45.2672 9.49516C45.3065 9.45018 45.3656 9.42768 45.4443 9.42768H45.8661C45.9448 9.42768 46.0038 9.45018 46.0432 9.49516C46.0826 9.53453 46.1079 9.57389 46.1191 9.61326L46.9964 12.38L47.823 9.58795C47.8286 9.55421 47.8483 9.52047 47.8821 9.48673C47.9214 9.44737 47.9748 9.42768 48.0423 9.42768H48.6665C48.7171 9.42768 48.7593 9.44737 48.7931 9.48673C48.8324 9.52047 48.8521 9.56265 48.8521 9.61326C48.8521 9.63575 48.8465 9.66106 48.8352 9.68917L47.629 13.6031C47.6121 13.6649 47.5812 13.7156 47.5362 13.7549C47.4969 13.7943 47.4378 13.814 47.3591 13.814H46.8108C46.7321 13.814 46.6702 13.7943 46.6252 13.7549C46.5802 13.7156 46.5493 13.6649 46.5324 13.6031L45.6552 10.9376L44.7779 13.6031C44.7554 13.6649 44.7217 13.7156 44.6767 13.7549C44.6373 13.7943 44.5755 13.814 44.4911 13.814H43.9513ZM49.8754 13.814C49.8192 13.814 49.7714 13.7943 49.732 13.7549C49.6926 13.7156 49.673 13.6678 49.673 13.6115V9.63013C49.673 9.57389 49.6926 9.52609 49.732 9.48673C49.7714 9.44737 49.8192 9.42768 49.8754 9.42768H50.5671C50.6233 9.42768 50.6711 9.44737 50.7105 9.48673C50.7498 9.52609 50.7695 9.57389 50.7695 9.63013V9.97597C50.9157 9.79602 51.1013 9.647 51.3262 9.52891C51.5568 9.40519 51.8408 9.34333 52.1782 9.34333C52.5212 9.34333 52.8193 9.42206 53.0723 9.57952C53.3254 9.73135 53.5194 9.94785 53.6543 10.229C53.7949 10.5102 53.8652 10.8476 53.8652 11.2412V13.6115C53.8652 13.6678 53.8455 13.7156 53.8062 13.7549C53.7668 13.7943 53.719 13.814 53.6628 13.814H52.9205C52.8643 13.814 52.8165 13.7943 52.7771 13.7549C52.7377 13.7156 52.718 13.6678 52.718 13.6115V11.2919C52.718 10.9657 52.6365 10.7098 52.4734 10.5243C52.316 10.3387 52.0854 10.2459 51.7817 10.2459C51.4893 10.2459 51.2559 10.3387 51.0816 10.5243C50.9073 10.7098 50.8201 10.9657 50.8201 11.2919V13.6115C50.8201 13.6678 50.8004 13.7156 50.7611 13.7549C50.7217 13.7943 50.6739 13.814 50.6177 13.814H49.8754ZM55.1476 13.814C55.0913 13.814 55.0435 13.7943 55.0042 13.7549C54.9648 13.7156 54.9451 13.6678 54.9451 13.6115V8.02745C54.9451 7.97121 54.9648 7.92341 55.0042 7.88405C55.0435 7.84469 55.0913 7.825 55.1476 7.825H55.8477C55.9039 7.825 55.9517 7.84469 55.9911 7.88405C56.0304 7.92341 56.0501 7.97121 56.0501 8.02745V13.6115C56.0501 13.6678 56.0304 13.7156 55.9911 13.7549C55.9517 13.7943 55.9039 13.814 55.8477 13.814H55.1476ZM59.1091 13.8983C58.6592 13.8983 58.2797 13.8196 57.9704 13.6621C57.6667 13.5047 57.4333 13.2825 57.2703 12.9958C57.1128 12.709 57.0228 12.3744 57.0003 11.992C56.9947 11.8907 56.9919 11.767 56.9919 11.6208C56.9919 11.4746 56.9947 11.3509 57.0003 11.2497C57.0228 10.8617 57.1156 10.5271 57.2787 10.2459C57.4474 9.9591 57.6836 9.73697 57.9872 9.57952C58.2965 9.42206 58.6705 9.34333 59.1091 9.34333C59.5478 9.34333 59.9189 9.42206 60.2226 9.57952C60.5319 9.73697 60.768 9.9591 60.9311 10.2459C61.0998 10.5271 61.1954 10.8617 61.2179 11.2497C61.2235 11.3509 61.2263 11.4746 61.2263 11.6208C61.2263 11.767 61.2235 11.8907 61.2179 11.992C61.1954 12.3744 61.1026 12.709 60.9396 12.9958C60.7821 13.2825 60.5487 13.5047 60.2394 13.6621C59.9358 13.8196 59.559 13.8983 59.1091 13.8983ZM59.1091 13.0632C59.4072 13.0632 59.6377 12.9704 59.8008 12.7849C59.9639 12.5937 60.0539 12.3153 60.0707 11.9498C60.0764 11.8654 60.0792 11.7558 60.0792 11.6208C60.0792 11.4859 60.0764 11.3762 60.0707 11.2919C60.0539 10.932 59.9639 10.6564 59.8008 10.4652C59.6377 10.274 59.4072 10.1784 59.1091 10.1784C58.8111 10.1784 58.5805 10.274 58.4174 10.4652C58.2544 10.6564 58.1644 10.932 58.1475 11.2919C58.1419 11.3762 58.1391 11.4859 58.1391 11.6208C58.1391 11.7558 58.1419 11.8654 58.1475 11.9498C58.1644 12.3153 58.2544 12.5937 58.4174 12.7849C58.5805 12.9704 58.8111 13.0632 59.1091 13.0632ZM63.4346 13.8983C63.1422 13.8983 62.8779 13.8421 62.6417 13.7296C62.4056 13.6115 62.2172 13.4569 62.0766 13.2657C61.9416 13.0689 61.8741 12.8495 61.8741 12.6077C61.8741 12.2141 62.0316 11.902 62.3465 11.6714C62.667 11.4353 63.0888 11.2778 63.6118 11.1991L64.7674 11.0304V10.8532C64.7674 10.617 64.7084 10.4343 64.5903 10.3049C64.4722 10.1756 64.2697 10.1109 63.9829 10.1109C63.7805 10.1109 63.6146 10.1531 63.4853 10.2375C63.3615 10.3162 63.2688 10.423 63.2069 10.558C63.1619 10.6311 63.0972 10.6677 63.0129 10.6677H62.3465C62.2847 10.6677 62.2369 10.6508 62.2031 10.617C62.175 10.5833 62.1609 10.5383 62.1609 10.4821C62.1666 10.3921 62.2031 10.2824 62.2706 10.1531C62.3381 10.0238 62.4449 9.90005 62.5911 9.78196C62.7373 9.65824 62.9257 9.55421 63.1563 9.46986C63.3868 9.38551 63.6652 9.34333 63.9914 9.34333C64.3456 9.34333 64.6437 9.38832 64.8855 9.47829C65.1329 9.56265 65.3297 9.67793 65.476 9.82414C65.6222 9.97035 65.729 10.1419 65.7965 10.3387C65.864 10.5355 65.8977 10.7436 65.8977 10.9629V13.6115C65.8977 13.6678 65.878 13.7156 65.8387 13.7549C65.7993 13.7943 65.7515 13.814 65.6953 13.814H65.012C64.9502 13.814 64.8995 13.7943 64.8602 13.7549C64.8264 13.7156 64.8096 13.6678 64.8096 13.6115V13.2826C64.7365 13.3894 64.6381 13.4906 64.5143 13.5862C64.3906 13.6762 64.2388 13.7521 64.0588 13.814C63.8845 13.8702 63.6765 13.8983 63.4346 13.8983ZM63.7214 13.097C63.9183 13.097 64.0954 13.0548 64.2529 12.9704C64.4159 12.8861 64.5425 12.7568 64.6324 12.5824C64.728 12.4025 64.7758 12.1775 64.7758 11.9076V11.7305L63.9323 11.8654C63.6005 11.9161 63.3531 11.9976 63.19 12.1101C63.0269 12.2225 62.9454 12.3603 62.9454 12.5234C62.9454 12.6471 62.982 12.7539 63.0551 12.8439C63.1338 12.9283 63.2322 12.9929 63.3503 13.0379C63.4684 13.0773 63.5921 13.097 63.7214 13.097ZM68.6078 13.8983C68.3154 13.8983 68.0567 13.8505 67.8318 13.7549C67.6125 13.6537 67.4297 13.5131 67.2835 13.3332C67.1373 13.1532 67.0248 12.9423 66.9461 12.7005C66.8674 12.4531 66.8224 12.1832 66.8111 11.8907C66.8055 11.7895 66.8027 11.6996 66.8027 11.6208C66.8027 11.5365 66.8055 11.4437 66.8111 11.3425C66.8224 11.0613 66.8646 10.7998 66.9377 10.558C67.0164 10.3162 67.1289 10.1053 67.2751 9.92536C67.4269 9.73978 67.6125 9.59639 67.8318 9.49516C68.0567 9.39394 68.3154 9.34333 68.6078 9.34333C68.9115 9.34333 69.1674 9.39675 69.3754 9.5036C69.5891 9.60482 69.7663 9.73697 69.9068 9.90005V8.02745C69.9068 7.97121 69.9237 7.92341 69.9575 7.88405C69.9968 7.84469 70.0474 7.825 70.1093 7.825H70.8263C70.8825 7.825 70.9303 7.84469 70.9697 7.88405C71.009 7.92341 71.0287 7.97121 71.0287 8.02745V13.6115C71.0287 13.6678 71.009 13.7156 70.9697 13.7549C70.9303 13.7943 70.8825 13.814 70.8263 13.814H70.1599C70.098 13.814 70.0474 13.7943 70.0081 13.7549C69.9743 13.7156 69.9575 13.6678 69.9575 13.6115V13.2994C69.8169 13.4737 69.6369 13.6171 69.4176 13.7296C69.2039 13.8421 68.934 13.8983 68.6078 13.8983ZM68.9199 12.9958C69.1561 12.9958 69.3445 12.9423 69.4851 12.8355C69.6257 12.7286 69.7297 12.5937 69.7972 12.4306C69.8647 12.2619 69.9012 12.0904 69.9068 11.9161C69.9125 11.8148 69.9153 11.708 69.9153 11.5955C69.9153 11.4774 69.9125 11.3678 69.9068 11.2665C69.9012 11.0978 69.8619 10.9376 69.7888 10.7857C69.7156 10.6283 69.6088 10.4989 69.4682 10.3977C69.3276 10.2965 69.1449 10.2459 68.9199 10.2459C68.6837 10.2459 68.4954 10.2993 68.3548 10.4062C68.2198 10.5074 68.1214 10.6423 68.0595 10.811C67.9977 10.9798 67.9611 11.1653 67.9499 11.3678C67.9443 11.5365 67.9443 11.7052 67.9499 11.8739C67.9611 12.0763 67.9977 12.2619 68.0595 12.4306C68.1214 12.5993 68.2198 12.7371 68.3548 12.8439C68.4954 12.9451 68.6837 12.9958 68.9199 12.9958ZM76.0206 13.8983C75.5707 13.8983 75.1912 13.8196 74.8819 13.6621C74.5782 13.5047 74.3448 13.2825 74.1818 12.9958C74.0243 12.709 73.9343 12.3744 73.9118 11.992C73.9062 11.8907 73.9034 11.767 73.9034 11.6208C73.9034 11.4746 73.9062 11.3509 73.9118 11.2497C73.9343 10.8617 74.0271 10.5271 74.1902 10.2459C74.3589 9.9591 74.5951 9.73697 74.8987 9.57952C75.208 9.42206 75.582 9.34333 76.0206 9.34333C76.4592 9.34333 76.8304 9.42206 77.1341 9.57952C77.4434 9.73697 77.6795 9.9591 77.8426 10.2459C78.0113 10.5271 78.1069 10.8617 78.1294 11.2497C78.135 11.3509 78.1378 11.4746 78.1378 11.6208C78.1378 11.767 78.135 11.8907 78.1294 11.992C78.1069 12.3744 78.0141 12.709 77.8511 12.9958C77.6936 13.2825 77.4602 13.5047 77.1509 13.6621C76.8473 13.8196 76.4705 13.8983 76.0206 13.8983ZM76.0206 13.0632C76.3187 13.0632 76.5492 12.9704 76.7123 12.7849C76.8754 12.5937 76.9654 12.3153 76.9822 11.9498C76.9879 11.8654 76.9907 11.7558 76.9907 11.6208C76.9907 11.4859 76.9879 11.3762 76.9822 11.2919C76.9654 10.932 76.8754 10.6564 76.7123 10.4652C76.5492 10.274 76.3187 10.1784 76.0206 10.1784C75.7226 10.1784 75.492 10.274 75.3289 10.4652C75.1659 10.6564 75.0759 10.932 75.059 11.2919C75.0534 11.3762 75.0506 11.4859 75.0506 11.6208C75.0506 11.7558 75.0534 11.8654 75.059 11.9498C75.0759 12.3153 75.1659 12.5937 75.3289 12.7849C75.492 12.9704 75.7226 13.0632 76.0206 13.0632ZM79.2749 13.814C79.2186 13.814 79.1708 13.7943 79.1315 13.7549C79.0921 13.7156 79.0724 13.6678 79.0724 13.6115V9.63013C79.0724 9.57389 79.0921 9.52609 79.1315 9.48673C79.1708 9.44737 79.2186 9.42768 79.2749 9.42768H79.9666C80.0228 9.42768 80.0706 9.44737 80.11 9.48673C80.1493 9.52609 80.169 9.57389 80.169 9.63013V9.97597C80.3152 9.79602 80.5008 9.647 80.7257 9.52891C80.9563 9.40519 81.2403 9.34333 81.5777 9.34333C81.9207 9.34333 82.2187 9.42206 82.4718 9.57952C82.7249 9.73135 82.9189 9.94785 83.0538 10.229C83.1944 10.5102 83.2647 10.8476 83.2647 11.2412V13.6115C83.2647 13.6678 83.245 13.7156 83.2057 13.7549C83.1663 13.7943 83.1185 13.814 83.0623 13.814H82.32C82.2637 13.814 82.2159 13.7943 82.1766 13.7549C82.1372 13.7156 82.1175 13.6678 82.1175 13.6115V11.2919C82.1175 10.9657 82.036 10.7098 81.8729 10.5243C81.7154 10.3387 81.4849 10.2459 81.1812 10.2459C80.8888 10.2459 80.6554 10.3387 80.4811 10.5243C80.3068 10.7098 80.2196 10.9657 80.2196 11.2919V13.6115C80.2196 13.6678 80.1999 13.7156 80.1606 13.7549C80.1212 13.7943 80.0734 13.814 80.0172 13.814H79.2749ZM88.073 13.814C87.7356 13.814 87.4516 13.7549 87.2211 13.6368C86.9905 13.5187 86.819 13.3444 86.7065 13.1138C86.594 12.8777 86.5378 12.5852 86.5378 12.2366V10.3218H85.8714C85.8152 10.3218 85.7674 10.3021 85.728 10.2628C85.6887 10.2234 85.669 10.1756 85.669 10.1194V9.63013C85.669 9.57389 85.6887 9.52609 85.728 9.48673C85.7674 9.44737 85.8152 9.42768 85.8714 9.42768H86.5378V8.02745C86.5378 7.97121 86.5547 7.92341 86.5884 7.88405C86.6278 7.84469 86.6784 7.825 86.7403 7.825H87.4235C87.4797 7.825 87.5275 7.84469 87.5669 7.88405C87.6063 7.92341 87.6259 7.97121 87.6259 8.02745V9.42768H88.6803C88.7366 9.42768 88.7844 9.44737 88.8237 9.48673C88.8631 9.52609 88.8828 9.57389 88.8828 9.63013V10.1194C88.8828 10.1756 88.8631 10.2234 88.8237 10.2628C88.7844 10.3021 88.7366 10.3218 88.6803 10.3218H87.6259V12.1522C87.6259 12.3828 87.6653 12.5628 87.744 12.6921C87.8284 12.8214 87.9718 12.8861 88.1742 12.8861H88.7563C88.8125 12.8861 88.8603 12.9058 88.8997 12.9451C88.939 12.9845 88.9587 13.0323 88.9587 13.0885V13.6115C88.9587 13.6678 88.939 13.7156 88.8997 13.7549C88.8603 13.7943 88.8125 13.814 88.7563 13.814H88.073ZM89.9179 13.814C89.8616 13.814 89.8138 13.7943 89.7745 13.7549C89.7351 13.7156 89.7154 13.6678 89.7154 13.6115V8.02745C89.7154 7.97121 89.7351 7.92341 89.7745 7.88405C89.8138 7.84469 89.8616 7.825 89.9179 7.825H90.6686C90.7305 7.825 90.7783 7.84469 90.812 7.88405C90.8514 7.92341 90.871 7.97121 90.871 8.02745V9.95066C91.0229 9.77071 91.2085 9.6245 91.4278 9.51203C91.6471 9.39957 91.917 9.34333 92.2375 9.34333C92.5806 9.34333 92.8786 9.42206 93.1317 9.57952C93.3903 9.73135 93.59 9.94785 93.7306 10.229C93.8711 10.5102 93.9414 10.8476 93.9414 11.2412V13.6115C93.9414 13.6678 93.9218 13.7156 93.8824 13.7549C93.843 13.7943 93.7952 13.814 93.739 13.814H92.9798C92.9236 13.814 92.8758 13.7943 92.8364 13.7549C92.7971 13.7156 92.7774 13.6678 92.7774 13.6115V11.2919C92.7774 10.9657 92.6958 10.7098 92.5328 10.5243C92.3753 10.3387 92.1448 10.2459 91.8411 10.2459C91.5487 10.2459 91.3125 10.3387 91.1325 10.5243C90.9582 10.7098 90.871 10.9657 90.871 11.2919V13.6115C90.871 13.6678 90.8514 13.7156 90.812 13.7549C90.7783 13.7943 90.7305 13.814 90.6686 13.814H89.9179ZM96.9014 13.8983C96.2772 13.8983 95.7823 13.7184 95.4168 13.3585C95.0513 12.9986 94.8545 12.4868 94.8263 11.8233C94.8207 11.767 94.8179 11.6967 94.8179 11.6124C94.8179 11.5224 94.8207 11.4521 94.8263 11.4015C94.8488 10.9798 94.9444 10.6142 95.1131 10.3049C95.2875 9.99565 95.5265 9.75947 95.8301 9.59639C96.1338 9.42768 96.4909 9.34333 96.9014 9.34333C97.3569 9.34333 97.7393 9.43893 98.0486 9.63013C98.3579 9.8157 98.5912 10.0772 98.7487 10.4146C98.9061 10.7464 98.9849 11.1316 98.9849 11.5702V11.7474C98.9849 11.8036 98.9652 11.8514 98.9258 11.8907C98.8865 11.9301 98.8359 11.9498 98.774 11.9498H95.9735C95.9735 11.9498 95.9735 11.9582 95.9735 11.9751C95.9735 11.992 95.9735 12.006 95.9735 12.0173C95.9791 12.2141 96.0157 12.3969 96.0832 12.5656C96.1563 12.7286 96.2603 12.8608 96.3953 12.962C96.5359 13.0632 96.7018 13.1138 96.893 13.1138C97.0504 13.1138 97.1826 13.0914 97.2894 13.0464C97.3963 12.9958 97.4834 12.9395 97.5509 12.8777C97.6184 12.8158 97.6662 12.7652 97.6943 12.7258C97.7449 12.6583 97.7843 12.619 97.8124 12.6077C97.8461 12.5909 97.8939 12.5824 97.9558 12.5824H98.6812C98.7374 12.5824 98.7824 12.5993 98.8162 12.633C98.8555 12.6668 98.8724 12.709 98.8668 12.7596C98.8612 12.8495 98.8134 12.9592 98.7234 13.0885C98.639 13.2179 98.5153 13.3444 98.3522 13.4681C98.1892 13.5918 97.9839 13.6959 97.7365 13.7802C97.4947 13.859 97.2163 13.8983 96.9014 13.8983ZM95.9735 11.2412H97.8377V11.2159C97.8377 10.9966 97.8011 10.8054 97.728 10.6423C97.6549 10.4793 97.5481 10.3499 97.4075 10.2543C97.2669 10.1587 97.0982 10.1109 96.9014 10.1109C96.7046 10.1109 96.5359 10.1587 96.3953 10.2543C96.2547 10.3499 96.1478 10.4793 96.0747 10.6423C96.0073 10.8054 95.9735 10.9966 95.9735 11.2159V11.2412Z" fill="black"/>
<path d="M32.0232 30.0232C31.9278 30.0232 31.8384 29.9874 31.755 29.9159C31.6835 29.8444 31.6477 29.755 31.6477 29.6478C31.6477 29.6001 31.6597 29.5465 31.6835 29.4869L35.992 17.9557C36.0278 17.8365 36.0933 17.7352 36.1887 17.6518C36.296 17.5565 36.439 17.5088 36.6178 17.5088H38.5664C38.7452 17.5088 38.8823 17.5565 38.9776 17.6518C39.073 17.7352 39.1445 17.8365 39.1921 17.9557L43.5007 29.4869C43.5126 29.5465 43.5186 29.6001 43.5186 29.6478C43.5186 29.755 43.4828 29.8444 43.4113 29.9159C43.3398 29.9874 43.2563 30.0232 43.161 30.0232H41.6056C41.4388 30.0232 41.3136 29.9874 41.2302 29.9159C41.1587 29.8325 41.111 29.755 41.0872 29.6835L40.2469 27.5024H34.9372L34.097 29.6835C34.0732 29.755 34.0195 29.8325 33.9361 29.9159C33.8646 29.9874 33.7454 30.0232 33.5785 30.0232H32.0232ZM35.563 25.4465H39.6212L37.5832 19.9223L35.563 25.4465ZM44.1686 33.42C44.0494 33.42 43.9481 33.3782 43.8647 33.2948C43.7812 33.2114 43.7395 33.1101 43.7395 32.9909V21.1558C43.7395 21.0367 43.7812 20.9354 43.8647 20.8519C43.9481 20.7685 44.0494 20.7268 44.1686 20.7268H45.5809C45.712 20.7268 45.8133 20.7685 45.8848 20.8519C45.9683 20.9354 46.01 21.0367 46.01 21.1558V21.871C46.296 21.4896 46.6715 21.1737 47.1363 20.9234C47.6011 20.6731 48.1791 20.548 48.8704 20.548C49.5021 20.548 50.0503 20.6493 50.5152 20.8519C50.98 21.0545 51.3673 21.3465 51.6772 21.7279C51.9871 22.0974 52.2255 22.5384 52.3923 23.0509C52.5592 23.5634 52.6545 24.1295 52.6784 24.7493C52.6903 24.9519 52.6962 25.1605 52.6962 25.375C52.6962 25.5895 52.6903 25.8041 52.6784 26.0186C52.6665 26.6145 52.5771 27.1687 52.4102 27.6812C52.2433 28.1818 51.999 28.6228 51.6772 29.0042C51.3673 29.3736 50.98 29.6656 50.5152 29.8802C50.0503 30.0947 49.5021 30.202 48.8704 30.202C48.2268 30.202 47.6786 30.0887 47.2257 29.8623C46.7728 29.6239 46.4033 29.314 46.1172 28.9327V32.9909C46.1172 33.1101 46.0755 33.2114 45.9921 33.2948C45.9206 33.3782 45.8193 33.42 45.6882 33.42H44.1686ZM48.2089 28.2891C48.7214 28.2891 49.1207 28.1818 49.4067 27.9673C49.6928 27.7408 49.8954 27.4488 50.0146 27.0912C50.1457 26.7337 50.2232 26.3404 50.247 25.9113C50.2708 25.5538 50.2708 25.1962 50.247 24.8387C50.2232 24.4096 50.1457 24.0163 50.0146 23.6587C49.8954 23.3012 49.6928 23.0151 49.4067 22.8006C49.1207 22.5741 48.7214 22.4609 48.2089 22.4609C47.7203 22.4609 47.321 22.5741 47.0111 22.8006C46.7132 23.027 46.4927 23.319 46.3497 23.6766C46.2186 24.0222 46.1411 24.3798 46.1172 24.7493C46.1053 24.9638 46.0994 25.1903 46.0994 25.4286C46.0994 25.667 46.1053 25.8994 46.1172 26.1259C46.1292 26.4834 46.2126 26.829 46.3675 27.1628C46.5225 27.4846 46.7489 27.7527 47.0469 27.9673C47.3448 28.1818 47.7322 28.2891 48.2089 28.2891ZM53.8987 33.42C53.7795 33.42 53.6782 33.3782 53.5947 33.2948C53.5113 33.2114 53.4696 33.1101 53.4696 32.9909V21.1558C53.4696 21.0367 53.5113 20.9354 53.5947 20.8519C53.6782 20.7685 53.7795 20.7268 53.8987 20.7268H55.311C55.4421 20.7268 55.5434 20.7685 55.6149 20.8519C55.6984 20.9354 55.7401 21.0367 55.7401 21.1558V21.871C56.0261 21.4896 56.4015 21.1737 56.8664 20.9234C57.3312 20.6731 57.9092 20.548 58.6005 20.548C59.2322 20.548 59.7804 20.6493 60.2453 20.8519C60.7101 21.0545 61.0974 21.3465 61.4073 21.7279C61.7172 22.0974 61.9556 22.5384 62.1224 23.0509C62.2893 23.5634 62.3846 24.1295 62.4085 24.7493C62.4204 24.9519 62.4263 25.1605 62.4263 25.375C62.4263 25.5895 62.4204 25.8041 62.4085 26.0186C62.3965 26.6145 62.3071 27.1687 62.1403 27.6812C61.9734 28.1818 61.7291 28.6228 61.4073 29.0042C61.0974 29.3736 60.7101 29.6656 60.2453 29.8802C59.7804 30.0947 59.2322 30.202 58.6005 30.202C57.9569 30.202 57.4087 30.0887 56.9558 29.8623C56.5028 29.6239 56.1334 29.314 55.8473 28.9327V32.9909C55.8473 33.1101 55.8056 33.2114 55.7222 33.2948C55.6507 33.3782 55.5494 33.42 55.4183 33.42H53.8987ZM57.939 28.2891C58.4515 28.2891 58.8508 28.1818 59.1368 27.9673C59.4229 27.7408 59.6255 27.4488 59.7447 27.0912C59.8758 26.7337 59.9532 26.3404 59.9771 25.9113C60.0009 25.5538 60.0009 25.1962 59.9771 24.8387C59.9532 24.4096 59.8758 24.0163 59.7447 23.6587C59.6255 23.3012 59.4229 23.0151 59.1368 22.8006C58.8508 22.5741 58.4515 22.4609 57.939 22.4609C57.4504 22.4609 57.0511 22.5741 56.7412 22.8006C56.4433 23.027 56.2228 23.319 56.0797 23.6766C55.9486 24.0222 55.8712 24.3798 55.8473 24.7493C55.8354 24.9638 55.8295 25.1903 55.8295 25.4286C55.8295 25.667 55.8354 25.8994 55.8473 26.1259C55.8593 26.4834 55.9427 26.829 56.0976 27.1628C56.2526 27.4846 56.479 27.7527 56.777 27.9673C57.0749 28.1818 57.4623 28.2891 57.939 28.2891ZM70.5745 30.202C69.4661 30.202 68.5365 30.0411 67.7856 29.7193C67.0467 29.3856 66.4805 28.9565 66.0872 28.4321C65.7058 27.8957 65.5032 27.3356 65.4794 26.7516C65.4794 26.6443 65.5151 26.5549 65.5866 26.4834C65.6581 26.4119 65.7475 26.3761 65.8548 26.3761H67.4459C67.6009 26.3761 67.7141 26.4119 67.7856 26.4834C67.869 26.543 67.9405 26.6205 68.0001 26.7158C68.0716 26.9423 68.2087 27.1687 68.4113 27.3952C68.6139 27.6097 68.8881 27.7885 69.2337 27.9315C69.5912 28.0745 70.0382 28.146 70.5745 28.146C71.4327 28.146 72.0703 28.003 72.4874 27.717C72.9165 27.4309 73.131 27.0436 73.131 26.5549C73.131 26.2093 73.0178 25.9352 72.7914 25.7325C72.5649 25.518 72.2133 25.3273 71.7366 25.1605C71.2718 24.9817 70.652 24.7969 69.8773 24.6062C68.9834 24.3917 68.2325 24.1355 67.6247 23.8375C67.0288 23.5276 66.5759 23.1403 66.266 22.6755C65.968 22.2106 65.819 21.6207 65.819 20.9056C65.819 20.2143 66.0038 19.6005 66.3733 19.0642C66.7546 18.5278 67.291 18.1047 67.9823 17.7948C68.6854 17.485 69.5197 17.33 70.4851 17.33C71.2598 17.33 71.9451 17.4373 72.5411 17.6518C73.137 17.8544 73.6316 18.1286 74.0249 18.4742C74.4182 18.8079 74.7162 19.1714 74.9188 19.5647C75.1333 19.9461 75.2466 20.3216 75.2585 20.691C75.2585 20.7864 75.2227 20.8758 75.1512 20.9592C75.0916 21.0307 75.0022 21.0665 74.8831 21.0665H73.2204C73.1251 21.0665 73.0297 21.0426 72.9344 20.9949C72.839 20.9473 72.7616 20.8579 72.702 20.7268C72.6305 20.3573 72.398 20.0415 72.0047 19.7793C71.6114 19.5171 71.1049 19.386 70.4851 19.386C69.8415 19.386 69.3231 19.5051 68.9298 19.7435C68.5365 19.9819 68.3398 20.3513 68.3398 20.8519C68.3398 21.1856 68.4352 21.4657 68.6258 21.6922C68.8285 21.9067 69.1443 22.0974 69.5734 22.2643C70.0144 22.4311 70.5924 22.6099 71.3075 22.8006C72.3206 23.027 73.1489 23.2893 73.7925 23.5872C74.4361 23.8852 74.9069 24.2666 75.2048 24.7314C75.5028 25.1843 75.6518 25.7623 75.6518 26.4655C75.6518 27.2521 75.4373 27.9255 75.0082 28.4857C74.591 29.034 74.0011 29.4571 73.2383 29.755C72.4755 30.053 71.5876 30.202 70.5745 30.202ZM80.4359 30.0232C79.7208 30.0232 79.1189 29.898 78.6302 29.6478C78.1416 29.3975 77.7781 29.028 77.5397 28.5393C77.3013 28.0388 77.1822 27.419 77.1822 26.6801V22.6218H75.7698C75.6506 22.6218 75.5493 22.5801 75.4659 22.4967C75.3825 22.4132 75.3407 22.3119 75.3407 22.1928V21.1558C75.3407 21.0367 75.3825 20.9354 75.4659 20.8519C75.5493 20.7685 75.6506 20.7268 75.7698 20.7268H77.1822V17.7591C77.1822 17.6399 77.2179 17.5386 77.2894 17.4552C77.3728 17.3717 77.4801 17.33 77.6112 17.33H79.0593C79.1785 17.33 79.2798 17.3717 79.3632 17.4552C79.4467 17.5386 79.4884 17.6399 79.4884 17.7591V20.7268H81.7231C81.8423 20.7268 81.9436 20.7685 82.027 20.8519C82.1104 20.9354 82.1522 21.0367 82.1522 21.1558V22.1928C82.1522 22.3119 82.1104 22.4132 82.027 22.4967C81.9436 22.5801 81.8423 22.6218 81.7231 22.6218H79.4884V26.5013C79.4884 26.9899 79.5718 27.3713 79.7387 27.6455C79.9174 27.9196 80.2214 28.0566 80.6504 28.0566H81.884C82.0032 28.0566 82.1045 28.0984 82.1879 28.1818C82.2713 28.2652 82.3131 28.3665 82.3131 28.4857V29.5941C82.3131 29.7133 82.2713 29.8146 82.1879 29.898C82.1045 29.9815 82.0032 30.0232 81.884 30.0232H80.4359ZM86.7594 30.202C85.806 30.202 85.0015 30.0351 84.3459 29.7014C83.7024 29.3677 83.2077 28.8969 82.8621 28.2891C82.5284 27.6812 82.3377 26.9721 82.29 26.1616C82.2781 25.9471 82.2721 25.6849 82.2721 25.375C82.2721 25.0651 82.2781 24.8029 82.29 24.5884C82.3377 23.766 82.5343 23.0568 82.88 22.4609C83.2375 21.8531 83.7381 21.3823 84.3817 21.0486C85.0372 20.7149 85.8298 20.548 86.7594 20.548C87.6891 20.548 88.4757 20.7149 89.1193 21.0486C89.7748 21.3823 90.2754 21.8531 90.621 22.4609C90.9786 23.0568 91.1812 23.766 91.2289 24.5884C91.2408 24.8029 91.2467 25.0651 91.2467 25.375C91.2467 25.6849 91.2408 25.9471 91.2289 26.1616C91.1812 26.9721 90.9845 27.6812 90.6389 28.2891C90.3052 28.8969 89.8106 29.3677 89.1551 29.7014C88.5115 30.0351 87.7129 30.202 86.7594 30.202ZM86.7594 28.4321C87.3911 28.4321 87.8798 28.2354 88.2254 27.8421C88.571 27.4369 88.7617 26.8469 88.7975 26.0722C88.8094 25.8934 88.8154 25.661 88.8154 25.375C88.8154 25.0889 88.8094 24.8565 88.7975 24.6778C88.7617 23.915 88.571 23.331 88.2254 22.9257C87.8798 22.5205 87.3911 22.3179 86.7594 22.3179C86.1278 22.3179 85.6391 22.5205 85.2935 22.9257C84.9478 23.331 84.7571 23.915 84.7214 24.6778C84.7095 24.8565 84.7035 25.0889 84.7035 25.375C84.7035 25.661 84.7095 25.8934 84.7214 26.0722C84.7571 26.8469 84.9478 27.4369 85.2935 27.8421C85.6391 28.2354 86.1278 28.4321 86.7594 28.4321ZM92.4052 30.0232C92.286 30.0232 92.1847 29.9815 92.1012 29.898C92.0178 29.8146 91.9761 29.7133 91.9761 29.5941V21.1737C91.9761 21.0426 92.0178 20.9354 92.1012 20.8519C92.1847 20.7685 92.286 20.7268 92.4052 20.7268H93.8533C93.9724 20.7268 94.0738 20.7685 94.1572 20.8519C94.2525 20.9354 94.3002 21.0426 94.3002 21.1737V21.9067C94.5743 21.5253 94.9259 21.2333 95.355 21.0307C95.796 20.8281 96.3025 20.7268 96.8746 20.7268H97.6076C97.7387 20.7268 97.84 20.7685 97.9115 20.8519C97.9949 20.9354 98.0366 21.0367 98.0366 21.1558V22.443C98.0366 22.5622 97.9949 22.6635 97.9115 22.747C97.84 22.8304 97.7387 22.8721 97.6076 22.8721H96.2131C95.641 22.8721 95.1941 23.033 94.8723 23.3548C94.5624 23.6766 94.4075 24.1176 94.4075 24.6778V29.5941C94.4075 29.7133 94.3658 29.8146 94.2823 29.898C94.1989 29.9815 94.0916 30.0232 93.9605 30.0232H92.4052ZM102.062 30.202C100.739 30.202 99.6901 29.8206 98.9154 29.0578C98.1407 28.295 97.7236 27.2104 97.664 25.8041C97.6521 25.6849 97.6461 25.5359 97.6461 25.3571C97.6461 25.1664 97.6521 25.0174 97.664 24.9102C97.7117 24.0163 97.9143 23.2416 98.2718 22.5861C98.6413 21.9305 99.1479 21.43 99.7915 21.0843C100.435 20.7268 101.192 20.548 102.062 20.548C103.027 20.548 103.838 20.7506 104.493 21.1558C105.149 21.5492 105.643 22.1034 105.977 22.8185C106.311 23.5217 106.478 24.3381 106.478 25.2677V25.6432C106.478 25.7623 106.436 25.8636 106.353 25.9471C106.269 26.0305 106.162 26.0722 106.031 26.0722H100.095C100.095 26.0722 100.095 26.0901 100.095 26.1259C100.095 26.1616 100.095 26.1914 100.095 26.2152C100.107 26.6324 100.185 27.0197 100.328 27.3773C100.483 27.7229 100.703 28.003 100.989 28.2175C101.287 28.4321 101.639 28.5393 102.044 28.5393C102.378 28.5393 102.658 28.4917 102.884 28.3963C103.111 28.2891 103.295 28.1699 103.439 28.0388C103.582 27.9077 103.683 27.8004 103.742 27.717C103.85 27.5739 103.933 27.4905 103.993 27.4667C104.064 27.4309 104.166 27.413 104.297 27.413H105.834C105.953 27.413 106.049 27.4488 106.12 27.5203C106.204 27.5918 106.239 27.6812 106.227 27.7885C106.216 27.9792 106.114 28.2116 105.924 28.4857C105.745 28.7598 105.483 29.028 105.137 29.2902C104.791 29.5524 104.356 29.7729 103.832 29.9517C103.319 30.1185 102.729 30.202 102.062 30.202ZM100.095 24.5705H104.046V24.5169C104.046 24.052 103.969 23.6468 103.814 23.3012C103.659 22.9555 103.433 22.6814 103.135 22.4788C102.837 22.2762 102.479 22.1749 102.062 22.1749C101.645 22.1749 101.287 22.2762 100.989 22.4788C100.691 22.6814 100.465 22.9555 100.31 23.3012C100.167 23.6468 100.095 24.052 100.095 24.5169V24.5705Z" fill="black"/>
</svg>
